<?xml version="1.0" standalone="no"?>
<!DOCTYPE svg PUBLIC "-//W3C//DTD SVG 1.1//EN" "http://www.w3.org/Graphics/SVG/1.1/DTD/svg11.dtd" >
<svg xmlns="http://www.w3.org/2000/svg">
<metadata>Generated by IcoMoon</metadata>
<defs>
<font id="icomoon" horiz-adv-x="1024">
<font-face units-per-em="1024" ascent="960" descent="-64" />
<missing-glyph horiz-adv-x="1024" />
<glyph unicode="&#x20;" horiz-adv-x="512" d="" />
<glyph unicode="&#xe900;" glyph-name="close" d="M512.85 896c-247.468 0-448-201.388-448-448s201.388-448 448-448c246.612 0 448 201.388 448 448s-201.388 448-448 448zM512.85 42.668c-223.572 0-405.333 181.76-405.333 405.332s181.761 405.333 405.333 405.333c223.572 0 405.332-181.761 405.332-405.333s-181.76-405.332-405.332-405.332zM708.262 644.268c-8.532 8.532-22.185 8.532-29.865 0l-165.548-165.548-165.548 165.548c-8.532 8.532-22.185 8.532-29.865 0-8.535-8.535-8.535-22.188 0-29.868l165.545-165.548-165.545-165.545c-8.535-8.535-8.535-22.188 0-29.868 4.265-4.268 9.385-5.972 15.36-5.972 5.972 0 11.092 1.705 15.36 5.972l165.545 166.4 165.548-166.4c0 0 9.388-5.972 15.36-5.972s11.092 1.705 15.36 5.972c8.532 8.532 8.532 22.188 0 29.868l-166.4 165.545 166.4 165.548c8.532 8.532 8.532 22.188 0 29.868z" />
<glyph unicode="&#xe901;" glyph-name="expand" d="M510.315 960c281.839 0 510.315-228.476 510.315-510.315s-228.476-510.315-510.315-510.315c-281.839 0-510.315 228.476-510.315 510.315s228.476 510.315 510.315 510.315zM510.315 917.333c-258.275 0-467.648-209.373-467.648-467.648s209.373-467.648 467.648-467.648c258.275 0 467.648 209.373 467.648 467.648s-209.373 467.648-467.648 467.648zM780.557 592.349c-7.405 7.405-18.901 8.228-27.215 2.468l-2.955-2.468-240.051-240.050-240.093 240.050c-7.405 7.405-18.901 8.228-27.215 2.468l-2.955-2.468c-7.405-7.405-8.228-18.901-2.468-27.215l2.468-2.955 255.157-255.157c7.405-7.405 18.901-8.228 27.215-2.469l2.955 2.469 255.157 255.157c8.331 8.331 8.331 21.839 0 30.17z" />
<glyph unicode="&#xe902;" glyph-name="collapse" d="M510.315 960c281.839 0 510.315-228.476 510.315-510.315s-228.476-510.315-510.315-510.315c-281.839 0-510.315 228.476-510.315 510.315s228.476 510.315 510.315 510.315zM510.315 917.333c-258.275 0-467.648-209.373-467.648-467.648s209.373-467.648 467.648-467.648c258.275 0 467.648 209.373 467.648 467.648s-209.373 467.648-467.648 467.648zM780.557 307.022c-7.405-7.405-18.901-8.228-27.215-2.468l-2.955 2.468-240.051 240.050-240.093-240.050c-7.405-7.405-18.901-8.228-27.215-2.468l-2.955 2.468c-7.405 7.405-8.228 18.901-2.468 27.215l2.468 2.955 255.157 255.157c7.405 7.405 18.901 8.228 27.215 2.469l2.955-2.469 255.157-255.157c8.331-8.331 8.331-21.839 0-30.17z" />
<glyph unicode="&#xe903;" glyph-name="Arrow-down" d="M514.734 896.79c11.948 0 21.332-9.387 21.332-21.334v-798.721l282.455 322.56c7.68 8.535 21.332 9.388 29.865 1.708 5.12-4.268 6.828-10.24 6.828-16.212 0-5.12-1.708-10.24-5.12-14.508l-319.148-364.372c0 0-4.265-1.708-6.825-3.415 0 0-0.855-1.705-1.708-1.705 0 0-0.852 0-1.708 0-3.412-0.855-5.972-0.855-10.24 0-0.852 0-2.56 0-3.412 0.852-2.56 0.852-5.12 0-6.828 2.56 0 0 0 1.708-1.705 2.56l-320.001 365.228c-7.68 8.532-6.827 22.185 1.706 29.865s22.187 6.828 29.867-1.705l282.452-322.56v797.865c0 11.947 9.388 21.334 21.335 21.334h0.852z" />
<glyph unicode="&#xe904;" glyph-name="Arrow-up" d="M514.734 0.161c11.948 0 21.332 9.385 21.332 21.332v798.719l282.455-322.559c7.68-8.532 21.332-9.388 29.865-1.708 5.12 4.268 6.828 10.24 6.828 16.212 0 5.12-1.708 10.243-5.12 14.508l-319.148 364.374c0 0-4.265 1.707-6.825 3.413 0 0-0.855 1.707-1.708 1.707 0 0-0.852 0-1.708 0-3.412 0.853-5.972 0.853-10.24 0-0.852 0-2.56 0-3.412-0.853-2.56-0.854-5.12 0-6.828-2.56 0 0 0-1.707-1.705-2.56l-320.001-365.225c-7.68-8.535-6.827-22.188 1.706-29.868s22.187-6.828 29.867 1.708l282.452 322.559v-797.866c0-11.948 9.388-21.332 21.335-21.332h0.852z" />
<glyph unicode="&#xe905;" glyph-name="Itau" horiz-adv-x="1050" d="M460.644 938.355c-28.257-0.672-48.986-1.665-86.986-4.008-17.574-1.049-36.762-2.593-50.271-3.944-3.392-0.369-10.486-1.049-15.729-1.544-22.024-2.161-54.719-6.287-68.471-8.632-2.904-0.496-7.16-1.176-9.56-1.544-2.345-0.311-6.543-1.047-9.257-1.544-2.712-0.496-7.279-1.36-10.174-1.847-10.185-1.729-27.513-5.247-37.321-7.592-2.72-0.68-7.592-1.847-10.799-2.593-3.209-0.735-6.103-1.415-6.472-1.479-18.082-4.313-36.033-13.017-49.848-24.304-13.449-10.92-25.473-28.561-31.521-46.080-0.983-2.714-1.976-5.489-2.279-6.169-1.049-2.345-5.616-22.079-8.888-38.248-0.487-2.712-1.352-6.719-1.847-8.944-0.498-2.216-1.167-6.103-1.602-8.632-0.375-2.527-0.864-5.616-1.176-6.783-0.928-3.523-4.688-27.576-7.096-45.033-2.343-16.903-3.887-29.183-5.239-41.64-0.68-6.103-1.36-12.086-1.481-13.263-0.184-1.167-0.743-7.153-1.296-13.263-0.496-6.103-1.231-13.568-1.608-16.658-1.296-11.343-4.506-60.759-6.103-95.613-1.233-25.841-2.034-81.178-1.602-111.345 0.432-37.624 1.352-71.25 2.216-82.967 0.313-4.746 0.928-14.746 1.296-22.211 0.369-7.462 0.864-17.021 1.176-21.279 1.417-21.343 2.529-35.343 3.080-39.782 0.313-2.721 1.049-9.938 1.544-15.977 0.496-6.049 1.233-13.266 1.544-16.041 0.369-2.778 1.049-8.758 1.536-13.327 1.544-14.618 2.72-24.177 3.705-30.536 0.496-3.392 1.36-9.193 1.847-12.951 1.792-13.568 3.887-26.767 6.169-38.866 0.496-2.711 1.296-7.281 1.855-10.176 1.049-6.167 3.455-18.447 5.183-26.214 5.919-27.21 8.511-35.346 15.481-48.737 1.911-3.697 4.377-8.015 5.489-9.559 1.047-1.544 2.591-3.761 3.391-4.936 3.518-5.24 13.576-15.48 19.128-19.433 0.92-0.673 2.712-1.966 3.879-2.898 1.241-0.983 2.408-1.725 2.72-1.725 0.248 0 0.864-0.433 1.352-0.929 2.408-2.342 19.376-10.424 26.649-12.582 1.36-0.433 3.025-0.983 3.705-1.298 1.608-0.737 10.67-3.016 21.592-5.489 4.751-1.111 9.624-2.278 10.793-2.591 2.839-0.737 20.726-4.314 34.238-6.784 7.768-1.416 22.888-3.825 32.383-5.184 3.578-0.486 8.145-1.167 10.179-1.536 7.462-1.295 38.31-4.879 57.677-6.728 6.971-0.681 15.544-1.48 19.121-1.848 5.801-0.614 11.722-1.111 40.097-3.144 4.255-0.312 13.944-0.865 21.591-1.239 7.649-0.369 18.322-0.922 23.752-1.234 43.919-2.527 169.513-2.527 212.818 0 5.43 0.369 16.102 0.865 23.752 1.234 13.135 0.614 17.951 0.927 38.551 2.47 26.399 2.033 65.208 5.801 78.344 7.647 3.761 0.553 10.24 1.418 14.497 1.976 15.729 2.033 37.32 5.304 49.656 7.585 13.512 2.47 31.398 6.047 34.24 6.784 1.167 0.312 6.039 1.48 10.793 2.591 10.67 2.409 19.927 4.751 21.588 5.489 2.051 0.74 4.106 1.459 6.17 2.161 5.056 1.664 21.839 9.623 23.255 10.985 0.433 0.43 1.664 1.352 2.714 1.976 4.815 3.016 7.030 4.741 11.415 8.694 4.936 4.506 11.784 11.904 13.448 14.433 0.553 0.865 2.033 2.959 3.264 4.623 1.298 1.728 2.345 3.272 2.345 3.52s0.991 1.976 2.158 3.825c1.178 1.848 2.593 4.567 3.154 6.049 0.614 1.413 1.229 2.959 1.48 3.261 1.167 1.544 5.489 13.824 7.337 20.792 2.903 10.793 8.325 36.27 10.301 48.305 0.497 3.080 1.050 5.978 1.234 6.472 0.558 1.359 3.953 22.52 7.030 44.104 0.681 4.751 1.362 9.503 1.546 10.488 0.497 2.842 2.714 21.775 3.704 31.77 0.486 4.936 1.167 10.614 1.536 12.646 0.376 2.040 1.047 8.696 1.544 14.807 0.497 6.103 1.175 13.632 1.48 16.658 0.369 3.080 0.929 10.109 1.295 15.729 0.369 5.614 0.927 12.518 1.234 15.421 0.374 2.898 1.047 13.571 1.544 23.747 0.558 10.181 1.175 22.705 1.544 27.758 2.775 44.849 2.775 162.545 0 208.809-0.312 5.248-0.865 15.544-1.234 22.825-0.374 7.281-0.927 16.904-1.239 21.286-0.369 4.439-1.167 15.36-1.848 24.361-0.681 9.006-1.359 17.462-1.544 18.813-0.184 1.362-0.735 7.345-1.231 13.266-0.497 5.919-1.050 11.474-1.234 12.334-0.184 0.865-0.863 6.546-1.544 12.649-1.597 14.746-3.576 31.025-4.006 32.936-0.184 0.864-0.865 5.8-1.546 10.865-3.021 23.065-8.63 55.208-13.445 77.103-0.681 3.088-1.784 8.081-2.465 11.104-1.728 7.897-3.768 15.856-4.439 17.273-0.312 0.68-0.865 2.343-1.298 3.703-1.359 4.561-8.207 19.8-9.933 22.209-0.251 0.369-2.217 3.265-4.321 6.472-4.378 6.601-15.601 18.321-22.328 23.257-13.32 9.808-28.129 16.472-47.247 21.16-3.295 0.805-6.584 1.629-9.871 2.472-2.281 0.672-6.851 1.663-16.658 3.697-2.78 0.583-5.555 1.18-8.328 1.792-11.904 2.896-50.647 9.191-75.873 12.399-5.064 0.616-10.056 1.296-11.103 1.536-1.856 0.377-10.801 1.296-28.992 3.088-5.064 0.496-12.032 1.233-15.424 1.544-3.392 0.369-9.503 0.922-13.568 1.296-4.073 0.303-10.734 0.864-14.807 1.167-13.816 1.176-52.186 3.392-73.408 4.321-41.027 1.79-116.774 2.343-163.776 1.167zM188.851 521.539c0.369-0.305 2.161-0.865 3.944-1.295 3.336-0.801 8.024-2.962 11.534-5.304 2.777-1.848 9.32-8.881 10.609-11.351 0.625-1.234 1.296-2.345 1.481-2.529 0.193-0.184 0.743-1.416 1.239-2.775 0.432-1.352 0.983-2.778 1.296-3.082 0.799-1.175 1.729-8.509 1.729-13.944 0-5.304-0.809-11.533-1.855-13.816-3.328-7.647-4.936-10.173-9.128-14.623-3.889-4.006-5.489-5.24-10.793-7.834-4.321-2.158-7.408-3.269-9.871-3.51-1.976-0.248-3.705-0.678-3.889-0.929-0.43-0.742-13.816-0.742-13.816 0 0 0.251-1.544 0.681-3.521 0.929-1.911 0.241-4.311 0.799-5.36 1.231-1.338 0.602-2.695 1.157-4.071 1.664-1.176 0.43-2.288 0.929-2.472 1.114-0.184 0.246-1.112 0.799-2.161 1.293-3.576 1.787-10.977 9.994-13.136 14.5-1.176 2.406-2.279 4.751-2.591 5.238-2.097 4.198-2.466 23.322-0.498 27.761 0.561 1.175 1.36 3.144 1.792 4.321 0.432 1.167 0.928 2.278 1.112 2.463s0.922 1.423 1.602 2.775c1.176 2.289 8.511 10.184 9.56 10.184 0.246 0 0.807 0.433 1.239 0.983 1.167 1.298 7.152 4.193 10.793 5.12 1.726 0.435 3.639 1.050 4.319 1.362 0.68 0.302 2.343 0.614 3.697 0.799 3.639 0.369 16.415-0.184 17.215-0.742zM860.987 478.546v-31.15h-119.672v41.695l6.666 1.055c14.743 2.281 23.933 3.825 24.486 4.193 0.369 0.248 3.392 0.737 6.784 1.167 3.392 0.433 6.479 0.993 6.784 1.242 0.376 0.238 3.272 0.799 6.479 1.229 3.208 0.369 7.401 1.114 9.257 1.603 1.848 0.43 5.734 1.111 8.632 1.48 2.903 0.376 5.798 0.927 6.479 1.178 0.678 0.302 3.761 0.86 6.784 1.293 3.087 0.369 6.536 0.922 7.711 1.298 1.167 0.305 5.617 1.167 9.871 1.848 4.257 0.681 9.81 1.597 12.337 2.033 2.529 0.494 5.243 0.863 6.042 0.927l1.359 0.064v-31.153zM350.218 451.036v-36.954h61.686v-54.904h-61.742l0.241-57.185c0.192-61.624 0.061-58.598 3.4-66.181 2.529-5.868 9.679-11.848 15.849-13.33 1.047-0.248 2.225-0.737 2.719-1.111 1.167-0.922 26.153-0.922 27.267 0.064 0.486 0.369 2.711 0.863 5.053 1.111l4.137 0.433v-54.106l-1.672-0.737c-1.536-0.676-8.632-1.789-18.376-2.959-13.88-1.608-39.176-1.792-40.658-0.246-0.369 0.305-1.352 0.553-2.278 0.553-2.409 0-12.401 1.853-13.146 2.406-0.369 0.246-2.030 0.865-3.758 1.231-1.664 0.433-3.328 0.993-3.704 1.234-0.305 0.31-1.72 0.863-3.080 1.295-1.359 0.43-2.593 0.991-2.778 1.175s-1.295 0.865-2.47 1.546c-5.12 2.711-6.656 3.694-9.377 5.983-1.6 1.295-3.080 2.399-3.392 2.399-0.614 0.067-5.304 5.187-9.001 9.871-2.836 3.64-7.037 10.609-8.456 14.193-0.494 1.167-1.047 2.281-1.231 2.465-0.246 0.184-0.863 2.097-1.48 4.319-0.558 2.217-1.295 4.562-1.608 5.243-0.302 0.678-1.050 3.453-1.536 6.164-0.522 2.578-1.080 5.151-1.672 7.713-0.433 1.848-0.737 23.57-0.922 64.648l-0.246 61.809h-35.721v54.904h35.785v62.185l4.191 0.43c2.281 0.241 4.439 0.673 4.751 0.922 0.369 0.246 3.392 0.799 6.784 1.231 3.392 0.43 6.479 1.055 6.787 1.295 0.369 0.248 4.255 0.929 8.637 1.48 4.439 0.625 8.33 1.298 8.632 1.544 0.369 0.248 2.409 0.681 4.623 0.865 2.9 0.348 5.783 0.819 8.643 1.416 6.6 1.359 18.135 3.154 18.688 2.839 0.246-0.12 0.43-16.904 0.43-37.253zM554.714 419.948c8.632-0.497 18.386-1.608 19.121-2.161 0.369-0.246 1.848-0.681 3.395-0.865 3.517-0.558 12.093-3.087 17.27-5.181 4.321-1.731 13.944-6.538 15.424-7.777 0.497-0.369 1.6-1.106 2.465-1.48 0.863-0.433 3.584-2.586 5.983-4.69 2.409-2.158 4.631-4.009 4.936-4.127 0.929-0.433 11.904-13.76 11.904-14.495 0-0.184 0.561-1.178 1.242-2.099 1.295-1.853 6.784-12.526 6.784-13.207 0-0.238 0.494-1.6 1.167-3.016 0.614-1.423 1.359-3.584 1.608-4.751 0.246-1.175 0.681-2.409 0.922-2.775 0.246-0.315 0.806-2.281 1.239-4.321 0.369-2.033 0.863-4.137 1.047-4.626 0.248-0.494 0.799-3.144 1.298-5.862 0.737-4.070 0.919-19.43 1.167-87.409l0.246-82.534h-67.297l-0.061 7.278c-0.064 3.945-0.248 9.682-0.497 12.705l-0.369 5.55-1.789-2.463c-2.834-3.768-12.152-12.646-15.849-15.112-8.090-5.312-10.24-6.6-12.465-7.345-1.359-0.369-3.144-1.111-4.009-1.597-0.927-0.435-3.208-1.178-5.061-1.546-1.851-0.43-3.697-0.991-4.009-1.231-3.144-2.345-42.010-2.286-45.033 0.056-0.305 0.248-2.527 0.799-4.936 1.231-2.342 0.43-5.12 1.114-6.167 1.608-0.983 0.43-3.64 1.546-5.793 2.409-2.481 1.078-4.91 2.271-7.278 3.576-1.641 1.011-3.308 1.979-5.002 2.895-2.591 1.423-3.456 2.225-10.486 9.257-7.217 7.217-8.146 8.2-8.146 8.878 0 0.248-0.799 1.608-1.72 3.026-0.993 1.416-2.406 4.006-3.154 5.678-0.735 1.72-1.725 3.761-2.158 4.626-0.486 0.863-1.167 3.080-1.6 4.936-0.43 1.848-0.983 3.697-1.231 4.006-0.681 0.865-1.856 9.626-1.856 13.45 0 1.782-0.302 3.576-0.671 3.942-0.745 0.745-0.563 3.208 1.352 18.081 0.369 2.895 0.927 5.55 1.175 5.855 0.248 0.369 0.799 1.976 1.167 3.64 0.801 3.208 2.473 7.401 4.201 10.552 0.553 1.047 1.29 2.465 1.664 3.208 0.369 0.799 0.865 1.416 1.167 1.416 0.248 0 0.433 0.369 0.433 0.801 0 0.678 6.784 9.503 7.959 10.301 0.246 0.184 0.681 0.799 0.865 1.418 0.246 0.681 0.983 1.295 1.664 1.48 0.678 0.184 1.231 0.561 1.231 0.809 0 0.614 10.368 8.758 13.88 10.793 2.527 1.541 8.207 4.436 16.471 8.389 1.175 0.614 12.705 4.314 17.769 5.734 1.848 0.553 5.489 1.298 8.015 1.667 2.527 0.43 4.936 0.927 5.248 1.167 0.369 0.248 4.065 0.809 8.328 1.178 4.257 0.369 9.498 0.983 11.72 1.295 8.76 1.295 39.537 1.047 42.808-0.312 1.114-0.489 1.167-0.246 0.737 5-0.241 3.023-0.673 5.617-0.922 5.801-0.31 0.184-0.678 1.352-0.927 2.591-0.433 2.281-2.778 7.273-4.992 10.673-1.423 2.15-7.409 8.328-8.090 8.328-0.238 0-1.288 0.614-2.342 1.416-2.714 1.976-7.089 3.945-9.743 4.439-1.298 0.248-2.345 0.681-2.345 0.929 0 2.711-39.849 3.144-51.814 0.489-1.544-0.305-5.12-0.983-8.018-1.48-2.906-0.489-5.801-1.167-6.479-1.482-0.681-0.302-2.898-0.863-4.936-1.231-2.033-0.369-4.257-0.927-4.936-1.231-0.681-0.312-3.144-0.991-5.489-1.544s-4.567-1.167-4.936-1.48c-0.369-0.251-2.033-0.865-3.761-1.295-1.664-0.433-3.392-1.050-3.704-1.298-0.369-0.248-2.033-0.799-3.704-1.231-1.72-0.369-4.129-1.231-5.358-1.848-1.298-0.681-2.473-1.175-2.657-1.175s-0.312 12.895-0.312 28.623c0 22.272 0.192 28.744 0.809 29.24 0.43 0.369 2.161 0.983 3.822 1.416 1.728 0.369 3.395 0.927 3.697 1.175 0.376 0.248 2.409 0.983 4.634 1.544 2.214 0.617 4.311 1.29 4.623 1.536 0.369 0.315 2.281 0.809 4.257 1.234 2.038 0.43 4.137 0.991 4.623 1.295 0.558 0.246 3.087 0.929 5.617 1.48 1.964 0.384 3.919 0.814 5.862 1.295 0.671 0.192 4.129 0.745 7.706 1.242 3.584 0.486 7.342 1.167 8.325 1.48 3.584 1.106 35.904 3.144 43.185 2.711 2.033-0.12 6.479-0.369 9.871-0.553v0.003zM214.506 291.323v-122.752h-72.167v245.512h72.167v-122.76zM759.818 337.595c0-73.039 0.312-87.171 1.792-89.144 0.305-0.305 0.681-1.536 0.929-2.714 0.863-4.621 4.872-11.351 9.431-15.913 2.409-2.47 5.12-4.628 5.983-4.869 0.929-0.192 1.608-0.561 1.608-0.809 0-0.241 2.161-1.103 4.81-1.966 3.953-1.242 6.047-1.482 12.216-1.482 4.321 0 8.079 0.305 8.942 0.673 0.799 0.43 2.714 1.047 4.257 1.48 1.544 0.43 4.321 1.728 6.167 2.967 3.456 2.217 9.871 8.136 9.871 9.129 0 0.302 0.865 1.664 1.851 2.959 1.047 1.359 1.856 2.711 1.856 3.080 0 0.376 0.553 1.672 1.167 2.906 0.678 1.231 1.416 3.328 1.664 4.623 0.184 1.359 0.614 2.711 0.927 3.023 1.546 1.976 1.792 14.431 1.792 86.794v75.75h72.169v-245.514h-34.173c-26.706 0-34.36 0.184-34.729 0.801-0.248 0.369-0.553 6.231-0.678 12.954-0.123 6.661-0.433 12.15-0.673 12.15-0.246 0-0.993-0.737-1.728-1.661-3.456-4.69-8.888-9.994-17.4-17.027-1.231-0.983-3.758-2.342-9.311-5.056-2.529-1.231-5.304-2.655-6.17-3.085-0.863-0.433-3.208-1.114-5.248-1.546-2.033-0.43-3.825-0.983-4.009-1.231-0.614-0.922-11.533-1.848-22.326-1.848-10.609 0-19.249 0.737-21.778 1.792-0.678 0.305-3.023 1.047-5.245 1.6-2.217 0.553-4.257 1.295-4.626 1.544-0.302 0.248-1.784 0.865-3.208 1.298-1.48 0.369-2.647 0.919-2.647 1.167 0 0.246-1.111 0.799-2.473 1.231-1.352 0.43-2.465 0.991-2.465 1.239 0 0.241-0.678 0.737-1.477 1.106-5.304 2.406-17.336 13.696-22.395 20.974-3.087 4.439-7.839 13.327-8.822 16.594-0.369 1.295-1.111 3.205-1.544 4.198-0.433 1.047-1.167 3.264-1.544 4.936-0.369 1.72-0.922 3.512-1.234 4.127-0.302 0.563-0.865 3.459-1.231 6.482-0.369 2.959-1.047 5.983-1.416 6.664-0.561 0.922-0.809 22.945-0.929 88.704l-0.184 87.409h72.233l-0.003-76.488zM546.698 277.67c-3.016-0.305-6.103-0.799-6.784-1.106-0.678-0.374-2.895-0.927-4.936-1.357-1.966-0.369-4.623-1.114-5.857-1.667-9.257-4.006-13.757-6.664-16.837-9.871-2.962-3.087-5.929-8.824-6.418-12.401-0.128-1.231-0.561-2.839-0.927-3.512-0.681-1.423-0.433-5.798 0.681-11.533 1.229-6.234 6.167-13.824 10.542-16.108 7.777-4.006 9.257-4.621 13.578-5.304 7.767-1.167 22.574-0.494 25.782 1.234 0.553 0.312 2.842 1.359 5.056 2.345 2.225 1.047 5.12 2.719 6.482 3.768 1.359 1.047 2.895 2.278 3.453 2.711 3.512 2.65 9.994 13.384 10.857 17.825 0.184 1.111 0.681 2.406 1.050 2.903 0.43 0.553 0.737 6.231 0.863 16.41l0.246 15.544-3.333 0.366c-4.506 0.558-26.706 0.369-33.498-0.248z" />
<glyph unicode="&#xe906;" glyph-name="heart-filled" d="M512 0.008c-23.040 0-45.228 9.388-61.44 26.455-3.412 3.412-283.307 310.612-389.12 429.225-39.253 44.375-61.44 104.108-61.44 169.815 0 139.093 110.933 260.266 247.467 269.653 98.986 6.826 192.001-40.96 244.906-124.587 9.388-15.36 29.868-15.36 39.255 0 52.905 83.627 144.212 131.413 244.905 124.587 137.388-9.387 248.32-130.56 247.468-269.653 0-65.708-22.188-126.295-61.44-169.815-105.812-119.465-385.708-425.812-389.12-429.225-17.068-17.068-39.252-26.455-61.44-26.455z" />
<glyph unicode="&#xe907;" glyph-name="star-check" horiz-adv-x="999" d="M176.49-36.562c3.33-2.498 11.655-3.329 11.655-3.329l-1.665-0.832c3.33 0 11.655 4.161 11.655 4.161l269.738 193.146c17.483 12.488 41.624 12.488 59.107 0l164.662-117.907c-12.992 20.572-21.604 44.187-24.524 69.537l-115.163 82.502c-31.634 23.312-74.927 23.312-107.395 0l-223.115-159.844 71.598 283.89c8.324 34.966-3.332 71.598-30.805 94.076l-183.154 151.517h227.278c38.295 0 71.598 22.478 85.749 58.278l104.898 263.908 104.898-263.908c14.154-35.8 47.454-58.278 85.751-58.278h230.607l-183.988-151.517c-27.473-22.478-39.127-59.941-30.802-94.076l16.327-64.742c10.994 10.118 23.35 18.772 36.764 25.66l-12.298 49.072c-4.161 19.149 2.498 39.129 17.483 51.617l228.944 188.98c6.661 5.829 9.99 14.985 6.661 23.312-2.5 8.324-10.824 14.151-19.149 14.151h-288.885c-21.644 0-39.961 12.488-47.454 31.637l-124.044 313.028c-5.829 15.818-31.637 15.818-38.298 0l-124.044-313.028c-8.327-19.149-26.641-31.637-47.454-31.637h-287.221c-9.158 0-16.65-5.827-19.98-14.151-2.498-8.327 0-17.483 6.66-23.312l228.943-188.98c14.986-12.488 21.647-32.468 16.651-51.617l-84.918-338.837c-2.498-8.324 0.833-17.483 8.325-22.478zM817.607-38.373c-8.092 0.717-16.017 2.013-23.734 3.849l2.845-2.038c6.439-4.291 14.106-4.895 20.89-1.811zM832.519 2.592c-68.968 0-124.878 55.91-124.878 124.878 0 68.97 55.91 124.878 124.878 124.878 68.97 0 124.878-55.908 124.878-124.878 0-68.968-55.908-124.878-124.878-124.878zM832.519-39.032c91.958 0 166.505 74.545 166.505 166.502s-74.547 166.505-166.505 166.505c-91.958 0-166.502-74.547-166.502-166.505s74.545-166.502 166.502-166.502zM930.491 183.815c8.127-8.13 8.127-21.307 0-29.434l-104.066-104.066c-4.408-4.411-10.562-6.609-16.766-5.994-6.206 0.614-11.808 3.979-15.268 9.166l-41.627 62.439c-6.374 9.563-3.791 22.486 5.774 28.862 9.563 6.376 22.486 3.791 28.862-5.772l27.543-41.315 86.113 86.113c8.127 8.127 21.307 8.127 29.434 0z" />
<glyph unicode="&#xe908;" glyph-name="star-filled" horiz-adv-x="999" d="M188.151-39.866c0 0-8.325 0.832-11.655 3.329-7.493 4.995-10.823 14.154-8.325 22.478l84.917 338.837c4.995 19.146-1.666 39.127-16.65 51.615l-228.943 188.983c-6.66 5.827-9.158 14.985-6.66 23.31 3.33 8.327 10.823 14.154 19.98 14.154h287.22c20.812 0 39.129 12.488 47.454 31.637l124.046 313.027c6.658 15.818 32.468 15.818 38.295 0l124.046-313.027c7.493-19.149 25.807-31.637 47.454-31.637h288.883c8.327 0 16.651-5.827 19.149-14.154 3.329-8.324 0-17.483-6.661-23.31l-228.941-188.983c-14.985-12.488-21.646-32.468-17.483-51.615l84.917-338.837c2.498-8.324-1.666-17.483-8.327-22.478-7.493-4.995-16.649-4.995-24.141 0l-269.737 193.144c-17.483 12.488-41.627 12.488-59.11 0l-269.737-193.144c0 0-8.325-4.163-11.655-4.163z" />
<glyph unicode="&#xe909;" glyph-name="starcheck-filled" horiz-adv-x="999" d="M176.49-36.562c3.33-2.498 11.655-3.329 11.655-3.329l-1.665-0.832c3.33 0 11.655 4.161 11.655 4.161l269.738 193.146c17.483 12.488 41.624 12.488 59.107 0l164.662-117.907c-67.252 122.103 20.93 214.413 64.924 237.004l-12.298 49.072c-4.161 19.149 2.498 39.129 17.483 51.617l228.944 188.98c6.661 5.829 9.99 14.985 6.661 23.312-2.498 8.324-10.824 14.151-19.149 14.151h-288.885c-21.644 0-39.961 12.488-47.454 31.637l-124.044 313.028c-5.829 15.818-31.637 15.818-38.298 0l-124.044-313.028c-8.327-19.149-26.641-31.637-47.454-31.637h-287.221c-9.158 0-16.65-5.827-19.98-14.151-2.498-8.327 0-17.483 6.66-23.312l228.943-188.98c14.986-12.488 21.647-32.468 16.651-51.617l-84.918-338.837c-2.498-8.324 0.833-17.483 8.325-22.478zM817.607-38.373c-8.092 0.717-16.017 2.013-23.734 3.849l2.845-2.038c6.439-4.291 14.106-4.895 20.89-1.811zM832.519 2.592c-68.968 0-124.878 55.91-124.878 124.878 0 68.97 55.91 124.878 124.878 124.878 68.97 0 124.878-55.908 124.878-124.878 0-68.968-55.908-124.878-124.878-124.878zM832.519-39.032c91.958 0 166.505 74.545 166.505 166.502s-74.547 166.505-166.505 166.505c-91.958 0-166.502-74.547-166.502-166.505s74.545-166.502 166.502-166.502zM930.491 183.815c8.127-8.13 8.127-21.307 0-29.434l-104.066-104.066c-4.408-4.408-10.562-6.609-16.766-5.994-6.206 0.614-11.808 3.979-15.268 9.166l-41.627 62.439c-6.374 9.563-3.791 22.486 5.774 28.862 9.563 6.376 22.486 3.791 28.862-5.772l27.543-41.315 86.113 86.113c8.127 8.127 21.307 8.127 29.434 0z" />
<glyph unicode="&#xe938;" glyph-name="transfer" d="M21.366 553.398h981.309c11.945 0 21.332 9.385 21.332 21.332 0 11.945-9.388 21.332-21.332 21.332h-930.111l328.526 327.672c8.532 8.533 8.532 22.186 0 29.866-8.535 8.533-22.188 8.533-29.868 0l-365.217-363.51c-5.973-5.975-7.68-15.36-4.267-23.040s11.093-12.8 19.626-12.8zM1002.675 342.628h-981.309c-11.946 0-21.333-9.385-21.333-21.332 0-11.945 9.386-21.332 21.333-21.332h930.109l-328.525-327.672c-8.532-8.532-8.532-22.185 0-29.865 4.268-4.268 9.388-5.972 15.36-5.972s11.092 2.56 15.36 5.972l364.365 363.51c5.972 5.975 7.677 15.36 4.265 23.040s-11.092 12.8-19.625 12.8z" />
<glyph unicode="&#xea0f;" glyph-name="user" d="M512 298.668c214.188 0 214.188 288.425 214.188 383.145 0 117.761-96.428 214.188-214.188 214.188s-214.188-95.573-214.188-214.188c0-94.72 0-383.145 214.188-383.145zM683.52 681.812c0-6.825 0-13.652 0-20.48h-36.692c-71.68 0-133.975 45.228-156.16 113.494l-23.895 71.68c14.508 4.266 29.868 6.826 45.228 6.826 94.72 0 171.52-76.8 171.52-171.521zM426.668 829.44l22.185-68.267c28.16-85.333 107.52-142.506 197.12-142.506h35.84c-5.972-133.12-37.545-277.335-169.812-277.335-153.6 0-171.52 194.56-171.52 340.48 0 63.148 34.988 118.614 86.188 147.628zM746.668 256h-469.335c-152.746 0-277.332-123.732-277.332-276.48v-22.188c0-11.945 9.387-21.332 21.333-21.332s21.333 9.388 21.333 21.332v22.188c0 128.852 104.96 233.812 234.666 233.812h57.175c10.24-91.305 86.185-162.985 180.905-162.985s170.668 71.68 180.055 162.985h52.052c128.852 0 234.668-104.96 234.668-233.812v-22.188c0-11.945 9.385-21.332 21.332-21.332s21.332 9.388 21.332 21.332v22.188c0 152.748-124.585 276.48-277.332 276.48zM515.412 93.012c-70.825 0-128 52.908-138.24 120.32h275.628c-9.388-67.412-67.412-120.32-137.388-120.32z" />
<glyph unicode="&#xea15;" glyph-name="chef" d="M293.504 618.683c0 11.781 9.551 21.332 21.335 21.332l393.073-0.015c11.784 0 21.332-9.551 21.332-21.332 0-11.784-9.549-21.335-21.332-21.335l-393.073 0.018c-11.784 0-21.335 9.551-21.335 21.332zM298.030 506.028l-1.385 69.972h43.238l1.667-70.828c4.268-81.065 23.040-144.212 57.175-192.852 26.452-36.692 68.265-58.028 114.345-58.028s87.895 21.335 114.348 58.028c34.132 48.64 52.908 111.788 57.172 193.708l0.855-0.855v70.828h40.105v-68.268c-4.265-91.305-25.6-162.132-64.852-217.6-34.988-47.785-89.6-75.945-149.332-75.945-59.735 0-113.495 27.305-148.48 75.945-39.255 54.615-60.588 125.44-64.855 215.895zM746.030 170.668l-0.852 0.852c152.748 0 277.332-124.588 277.332-277.332v-19.628c0-11.948-9.385-21.332-21.332-21.332s-21.332 9.385-21.332 21.332v19.628c0 128-103.255 232.105-230.4 234.665l-152.737-0.852c-3.412-2.56-102.4 0-106.665 0-4.268 0-64 0.852-64 0.852h-154.465c-127.147-3.412-229.547-107.52-230.4-234.665v-22.188c-0.853-11.948-10.24-20.48-21.333-20.48h-0.853c-11.947 0-20.48 10.24-18.773 22.188v20.48c0 150.185 122.027 273.065 273.068 276.48h472.745zM639.375 42.668c0-11.784-9.551-21.335-21.332-21.335-11.784 0-21.335 9.551-21.335 21.335 0 11.781 9.551 21.332 21.335 21.332 11.781 0 21.332-9.551 21.332-21.332zM724.708 42.668c0-11.784-9.551-21.335-21.332-21.335-11.784 0-21.332 9.551-21.332 21.335 0 11.781 9.549 21.332 21.332 21.332 11.781 0 21.332-9.551 21.332-21.332zM658.455 158.874c5.271-10.537 0.998-23.352-9.539-28.621l-158.874-79.437v-114.816c0-11.781-9.551-21.332-21.335-21.332-11.781 0-21.332 9.551-21.332 21.332v128c0 8.079 4.564 15.468 11.791 19.082l170.668 85.332c10.54 5.268 23.352 0.998 28.621-9.541zM298.043 832v-21.333c0-30.282 5.102-71.537 10.45-108.984 1.324-9.267 2.65-18.217 3.901-26.632l0.269-1.823c1.147-7.713 2.227-14.986 3.164-21.545 1.915-13.404 3.548-25.815 3.548-33.016v-21.335h-42.668v21.335c0 3.464-1.034 12.388-3.118 26.982-0.922 6.436-1.984 13.594-3.136 21.345l-0.264 1.787c-1.252 8.417-2.591 17.469-3.935 26.867-5.317 37.221-10.88 81.299-10.88 115.017v21.333h42.668zM724.708 832v-21.333c0-30.282-5.102-71.537-10.452-108.984-1.324-9.267-2.65-18.217-3.899-26.632l-0.269-1.823c-1.147-7.713-2.227-14.986-3.164-21.545-1.915-13.404-3.548-25.815-3.548-33.016v-21.335h42.668v21.335c0 3.464 1.034 12.388 3.118 26.982 0.919 6.436 1.984 13.594 3.133 21.345l0.266 1.787c1.249 8.417 2.591 17.469 3.935 26.867 5.317 37.221 10.88 81.299 10.88 115.017v21.333h-42.668zM340.708 917.333c47.13 0 85.335-38.205 85.335-85.333h-42.668c0 23.564-19.103 42.667-42.668 42.667s-42.665-19.103-42.665-42.667h-42.668c0 47.128 38.206 85.333 85.333 85.333zM682.043 917.333c-47.13 0-85.335-38.205-85.335-85.333h42.668c0 23.564 19.103 42.667 42.668 42.667 23.562 0 42.665-19.103 42.665-42.667h42.668c0 47.128-38.205 85.333-85.332 85.333zM558.932 832c2.36 6.673 3.643 13.853 3.643 21.333 0 35.346-28.654 64-64 64s-64-28.654-64-64c0-7.48 1.283-14.661 3.64-21.333h-44.173c-1.4 6.893-2.135 14.028-2.135 21.333 0 58.91 47.757 106.667 106.668 106.667s106.668-47.756 106.668-106.667c0-7.306-0.735-14.44-2.135-21.333h-44.175z" />
<glyph unicode="&#xea16;" glyph-name="doctor" d="M745.812 320h-467.625c-153.601 0-278.188-123.732-278.188-276.48v-21.332c0-11.948 9.387-21.335 21.333-21.335s21.333 9.388 21.333 21.335v21.332c0 128.852 105.813 234.668 235.521 234.668h84.48v-255.148c0-11.948 9.385-21.332 21.332-21.332s21.332 9.385 21.332 21.332v255.148h213.335v-255.148c0-11.948 9.385-21.332 21.332-21.332s21.332 9.385 21.332 21.332v255.148h84.48c129.708 0 235.52-104.96 235.52-234.668v-21.332c0-11.948 9.388-21.335 21.335-21.335 11.945 0 21.332 9.388 21.332 21.335v21.332c0 152.748-124.588 277.332-278.188 277.332zM896.852 118.612h-56.32v54.615c0 11.945-9.385 21.332-21.332 21.332s-21.332-9.388-21.332-21.332v-54.615h-52.908c-11.948 0-21.332-9.385-21.332-21.332s9.385-21.332 21.332-21.332h52.908v-54.615c0-11.945 9.385-21.332 21.332-21.332s21.332 9.388 21.332 21.332v54.615h56.32c11.948 0 21.335 9.385 21.335 21.332s-9.388 21.332-21.335 21.332zM512 362.668c214.188 0 214.188 288.425 214.188 383.146 0 117.76-96.428 214.187-214.188 214.187s-214.188-95.573-214.188-214.187c0-94.721 0-383.146 214.188-383.146zM512 917.333c94.72 0 171.52-76.8 171.52-171.52 0-6.826 0-13.653 0-20.48h-36.692c-71.68 0-133.975 45.227-156.16 113.494l-23.895 71.68c14.508 4.266 29.868 6.826 45.228 6.826zM426.668 894.293l22.185-68.266c28.16-85.334 107.52-142.507 197.12-142.507h35.84c-5.972-133.12-37.545-277.332-169.812-277.332-153.6 0-171.52 194.56-171.52 340.479 0 63.146 34.988 118.613 86.188 147.626z" />
<glyph unicode="&#xea17;" glyph-name="police" d="M1021.44 494.047c-9.388 33.28-34.132 58.88-67.412 68.268l-34.135 10.24c-49.492 14.505-93.865 45.225-124.585 86.185l-62.295 83.628c-52.905 70.826-133.12 110.933-220.16 110.933s-167.252-40.107-220.16-110.933l-62.292-83.628c-30.72-40.96-75.093-71.68-124.587-86.185l-34.133-10.24c-33.28-9.388-58.027-34.988-67.413-68.268s0-68.268 23.040-93.012l82.773-87.895v-80.212c0-34.132 19.627-64 50.347-76.8 111.785-46.932 231.253-70.828 353.281-70.828 122.025 0 240.64 23.895 352.425 70.828 30.72 12.8 50.348 42.668 50.348 76.8v80.212l82.772 87.895c23.895 25.6 32.428 59.732 23.040 93.012zM873.812 267.059c-228.692 96.428-491.52 96.428-720.212 0v37.548c226.987 101.548 493.227 101.548 720.212 0v-37.548zM849.92 195.379c-214.188-89.6-459.092-89.6-673.28 0-11.093 4.268-17.92 15.36-20.48 27.308 225.28 99.84 488.107 99.84 715.092 0-3.412-11.948-10.24-23.040-21.332-27.308zM967.68 430.047l-79.36-84.48c-237.228 104.96-512.852 104.96-750.080 0l-79.36 84.48c-13.653 14.508-17.92 34.132-12.8 52.908 5.12 18.772 19.627 33.28 38.4 39.252l34.133 10.24c58.027 17.068 110.080 52.908 146.774 101.548l62.292 83.626c44.372 59.733 112.64 93.867 186.028 93.867 73.385 0 140.8-34.134 186.025-93.867l63.148-83.626c36.692-48.64 87.892-84.48 146.772-101.548l34.135-10.24c18.772-5.12 33.28-20.48 38.4-39.252 5.12-18.775 0-38.4-12.8-52.908zM512.852 608.394c-17.92 0-31.572-14.508-31.572-31.575 0-17.065 14.508-32.425 31.572-32.425 17.068 0 31.575 14.505 31.575 32.425s-14.508 31.575-31.575 31.575z" />
<glyph unicode="&#xea18;" glyph-name="student" d="M746.668 256h-467.625c0 0-3.415 0-5.12 0-151.041-3.412-273.068-126.292-273.068-276.48v-20.48c-1.707-11.948 6.827-22.188 18.773-22.188h0.853c11.093 0 20.48 8.535 21.333 20.48v22.188c0.853 127.148 103.253 231.252 230.4 234.668l226.988-145.92c0 0 7.68-3.415 11.945-3.415 4.268 0 7.68 0.855 11.095 3.415l227.84 145.92c127.145-2.56 230.4-106.668 230.4-234.668v-19.628c0-11.945 9.385-21.332 21.332-21.332s21.332 9.388 21.332 21.332v19.628c0 152.748-124.585 277.332-277.332 277.332zM510.295 110.932l-160.428 103.255h321.708l-161.28-103.255zM231.255 715.947l65.708-30.719c0 0 0-5.12 0-7.68l1.705-86.188c4.268-90.452 25.6-161.28 64.855-215.892 34.985-48.64 88.745-75.948 148.48-75.948 59.732 0 114.345 28.16 149.332 75.948 39.252 55.465 60.588 126.292 64.852 217.6v86.185c0 0 0 4.268 0 6.828l63.148 29.867v-395.094c0-11.945 9.388-21.332 21.332-21.332 11.948 0 21.335 9.388 21.335 21.332v456.534c0 0 0 0 0 0.853 0 25.6-15.36 48.64-38.4 59.733l-235.52 111.787c-28.16 13.653-60.588 13.653-89.6 0l-237.228-111.787c-23.894-11.093-38.4-34.986-38.4-61.44s14.506-49.493 38.4-61.44zM685.228 591.36c-4.265-81.92-23.040-145.068-57.172-193.708-26.452-36.692-68.268-58.025-114.348-58.025s-87.892 21.332-114.345 58.025c-34.135 48.64-52.908 111.788-57.175 192.855l-1.705 72.532 128.852-60.588c14.508-6.825 29.012-10.24 44.372-10.24s30.72 3.415 45.228 10.24l127.148 59.735v-71.68l-0.855 0.852zM249.175 799.573l237.228 111.787c17.065 7.68 36.692 7.68 52.905 0l236.375-111.787c8.532-4.266 14.505-12.8 14.505-22.186s-5.12-17.92-14.505-22.187l-236.375-111.788c-17.065-7.68-35.84-7.68-52.905 0l-237.228 111.788c-9.387 4.267-14.507 12.8-14.507 22.187s5.12 18.773 14.507 22.186z" />
<glyph unicode="&#xea1a;" glyph-name="waiter" d="M745.812 294.4h-467.625c-153.601 0-278.188-123.732-278.188-276.48v-21.332c0-11.948 9.387-21.335 21.333-21.335s21.333 9.388 21.333 21.335v21.332c0 128.852 105.813 234.668 235.521 234.668h84.48l108.372-256.855c-1.708 0 7.68 0 19.628 0 11.945 0 21.332 0 21.332 0l-106.668 256.855h213.335l-106.668-256.855c0 0 9.388 0 21.332 0 11.948 0 19.628 0 19.628 0l108.372 256.855h84.48c129.708 0 235.52-104.96 235.52-234.668v-21.332c0-11.948 9.388-21.335 21.335-21.335 11.945 0 21.332 9.388 21.332 21.335v21.332c0 152.748-124.588 277.332-278.188 277.332zM512 337.068c214.188 0 214.188 288.425 214.188 383.146 0 117.76-96.428 214.187-214.188 214.187s-214.188-95.573-214.188-214.187c0-94.721 0-383.146 214.188-383.146zM512 891.733c94.72 0 171.52-76.8 171.52-171.52 0-6.826 0-13.653 0-20.481h-36.692c-71.68 0-133.975 45.228-156.16 113.494l-23.895 71.68c14.508 4.266 29.868 6.826 45.228 6.826zM426.668 868.693l22.185-68.266c28.16-85.334 107.52-142.507 197.12-142.507h35.84c-5.972-133.12-37.545-277.332-169.812-277.332-153.6 0-171.52 194.56-171.52 340.479 0 63.146 34.988 118.613 86.188 147.626zM554.668 230.4c11.781 0 21.332-9.551 21.332-21.332 0-11.784-9.551-21.335-21.332-21.335h-8.765l45.76-95.334-38.467-18.463-41.198 85.832-41.198-85.832-38.467 18.463 45.76 95.334h-8.76c-11.781 0-21.332 9.551-21.332 21.335 0 11.781 9.551 21.332 21.332 21.332h85.335z" />
<glyph unicode="&#xea1b;" glyph-name="worker" d="M234.042 746.667c0 11.782 9.551 21.333 21.334 21.333h512c11.781 0 21.332-9.551 21.332-21.333s-9.551-21.334-21.332-21.334h-512c-11.782 0-21.334 9.551-21.334 21.334zM426.947 884.146c-11.026-8.106-21.942-18.020-28.488-24.564-31.547-31.547-52.262-72.26-58.388-96.756l-5.174-20.697-41.393 10.348 5.174 20.696c8.1 32.393 32.893 79.858 69.612 116.578 7.677 7.678 20.229 19.097 33.382 28.769 6.564 4.828 13.734 9.557 20.844 13.167 6.577 3.34 15.48 6.979 24.86 6.979h21.332v-42.667h-21.158c0 0-1.72-0.326-5.714-2.355-4.27-2.168-9.367-5.438-14.889-9.499zM595.804 884.146c11.023-8.106 21.942-18.020 28.485-24.564 31.547-31.547 52.265-72.26 58.388-96.756l5.174-20.697 41.393 10.348-5.174 20.696c-8.097 32.393-32.891 79.858-69.612 116.578-7.677 7.678-20.227 19.097-33.38 28.769-6.566 4.828-13.734 9.557-20.846 13.167-6.577 3.34-15.48 6.979-24.858 6.979h-21.332v-42.667h21.156c0 0 1.723-0.326 5.716-2.355 4.27-2.168 9.367-5.438 14.889-9.499zM468.708 938.667c11.784 0 21.335-9.551 21.335-21.333v-42.666c0-11.782-9.551-21.334-21.335-21.334-11.781 0-21.332 9.551-21.332 21.334v42.666c0 11.782 9.551 21.333 21.332 21.333zM554.043 938.667c11.781 0 21.332-9.551 21.332-21.333v-42.666c0-11.782-9.551-21.334-21.332-21.334-11.784 0-21.335 9.551-21.335 21.334v42.666c0 11.782 9.551 21.333 21.335 21.333zM447.375 938.667c0 11.782 9.551 21.333 21.332 21.333h85.335c11.781 0 21.332-9.551 21.332-21.333s-9.551-21.333-21.332-21.333h-85.335c-11.781 0-21.332 9.551-21.332 21.333zM298.030 634.028l-1.385 69.972h43.238l1.667-70.828c4.268-81.065 23.040-144.212 57.175-192.852 26.452-36.692 68.265-58.028 114.345-58.028s87.895 21.335 114.348 58.028c34.132 48.64 52.908 111.788 57.172 193.708l0.855-0.855v70.828h40.105v-68.268c-4.265-91.305-25.6-162.132-64.852-217.6-34.988-47.785-89.6-75.945-149.332-75.945-59.735 0-113.495 27.305-148.48 75.945-39.255 54.615-60.588 125.44-64.855 215.895zM746.030 298.668l-0.852 0.852c152.748 0 277.332-124.588 277.332-277.332v-19.628c0-11.948-9.385-21.332-21.332-21.332s-21.332 9.385-21.332 21.332v19.628c0 128-103.255 232.105-230.4 234.665l-152.737-0.852c-3.412-2.56-102.4 0-106.665 0-4.268 0-64 0.852-64 0.852h-154.465c-127.147-3.412-229.547-107.52-230.4-234.665v-22.188c-0.853-11.948-10.24-20.48-21.333-20.48h-0.853c-11.947 0-20.48 10.24-18.773 22.188v20.48c0 150.185 122.027 273.065 273.068 276.48h472.745zM767.375 277.332c11.781 0 21.332-9.551 21.332-21.332v-277.332c0-11.784-9.551-21.335-21.332-21.335-11.784 0-21.332 9.551-21.332 21.335v277.332c0 11.781 9.549 21.332 21.332 21.332zM255.375 277.332c11.781 0 21.333-9.551 21.333-21.332v-277.332c0-11.784-9.551-21.335-21.333-21.335s-21.334 9.551-21.334 21.335v277.332c0 11.781 9.551 21.332 21.334 21.332z" />
<glyph unicode="&#xea1c;" glyph-name="geek" horiz-adv-x="1075" d="M401.057 704c-11.781 0-21.332-9.551-21.332-21.332v-42.668h-42.668v-42.668h42.668v-21.332c0-11.781 9.551-21.332 21.332-21.332h106.668c11.781 0 21.332 9.551 21.332 21.332v21.332h21.335v-21.332c0-11.781 9.551-21.332 21.332-21.332h106.668c11.781 0 21.332 9.551 21.332 21.332v21.332h8.543v42.668h-8.543v42.668c0 11.781-9.551 21.332-21.332 21.332h-106.668c-11.781 0-21.332-9.551-21.332-21.332v-42.668h-21.335v42.668c0 11.781-9.551 21.332-21.332 21.332h-106.668zM486.392 597.332h-64v64h64v-64zM657.057 597.332h-64v64h64v-64zM751.788 681.812c0-94.72 0-383.145-214.188-383.145s-214.188 288.425-214.188 383.145c0 118.614 96.428 214.188 214.188 214.188s214.188-96.427 214.188-214.188zM709.12 661.332v20.48c0 94.721-76.8 171.521-171.52 171.521-15.36 0-30.72-2.56-45.228-6.826l23.895-71.68c9.364-28.82 25.879-53.533 47.229-72.47-7.698-3.22-13.105-10.824-13.105-19.689v-25.050c-7.488 5.379-14.615 11.256-21.335 17.597v7.452c0 11.781-9.551 21.332-21.332 21.332h-3.991c-12.429 17.087-22.387 36.287-29.281 57.173l-22.185 68.267c-51.2-29.013-86.188-84.48-86.188-147.628 0-13.581 0.156-27.584 0.561-41.812h-29.583v-42.668h31.611c8.694-126.794 43.761-256 168.932-256 101.123 0 143.388 84.296 160.356 183.48 1.137 2.609 1.769 5.491 1.769 8.52v2.473c4.111 27.174 6.449 55.255 7.688 82.862h-7.688v42.665h9.395zM25.6-20.48c0 152.748 124.587 276.48 277.332 276.48h470.188c152.748 0 277.332-123.732 277.332-276.48v-22.188c0-11.945-9.385-21.332-21.332-21.332s-21.332 9.388-21.332 21.332v22.188c0 128.852-105.815 233.812-234.668 233.812h-52.052c-9.388-91.305-85.335-162.985-180.055-162.985s-170.665 71.68-180.905 162.985h-57.175c-129.706 0-234.666-104.96-234.666-233.812v-22.188c0-11.945-9.387-21.332-21.334-21.332s-21.333 9.388-21.333 21.332v22.188zM402.772 213.332c10.24-67.412 67.415-120.32 138.24-120.32 69.975 0 128 52.908 137.388 120.32h-275.628z" />
<glyph unicode="&#xea1d;" glyph-name="baby" d="M626.348 420.692c0 63.148-51.203 115.2-115.203 115.2s-115.2-51.2-115.2-115.2c0-64 51.2-115.2 115.2-115.2s115.203 51.2 115.203 115.2zM439.465 420.692c0 40.108 32.428 72.535 72.535 72.535s72.532-32.428 72.532-72.535c0-40.105-32.425-72.532-72.532-72.532s-72.535 32.428-72.535 72.532zM415.572 544.428c0 17.92-14.508 32.425-32.428 32.425s-32.425-14.505-32.425-32.425c0-17.92 14.505-32.428 32.425-32.428s32.428 14.508 32.428 32.428zM543.572 420.692c0 17.92-14.505 32.428-32.425 32.428s-32.428-14.508-32.428-32.428c0-17.92 14.508-32.425 32.428-32.425s32.425 14.505 32.425 32.425zM639.148 512.852c17.92 0 32.425 14.508 32.425 32.428s-14.505 31.572-32.425 31.572c-17.923 0-32.428-14.505-32.428-31.572s14.505-32.428 32.428-32.428zM662.185 254.292c94.723 52.908 158.723 152.748 158.723 268.8 0 170.668-139.095 308.908-309.763 308.908-170.665 0-309.759-139.092-309.759-308.908 0-116.905 65.706-216.745 161.279-269.652-151.892-15.36-271.359-140.8-271.359-295.252 0-11.948 9.387-21.335 21.333-21.335s21.334 9.388 21.334 21.335c0 140.8 116.053 256 259.412 256h183.468c-11.092-130.56-121.172-234.668-256-234.668-11.945 0-21.332-9.388-21.332-21.332 0-11.948 9.388-21.335 21.332-21.335 158.72 0 288.428 122.88 298.668 277.335h23.040c143.36 0 259.412-115.2 259.412-256 0-11.948 9.388-21.335 21.335-21.335 11.945 0 21.332 9.388 21.332 21.335 0 157.865-125.44 286.72-282.455 296.96zM244.906 523.948c0 116.905 75.946 215.039 180.906 250.879-4.268-11.094-6.828-22.187-6.828-34.987 0-51.2 41.815-93.012 93.015-93.012 11.948 0 21.332 9.385 21.332 21.332s-9.385 21.332-21.332 21.332c-27.308 0-50.348 22.188-50.348 50.348s22.188 50.347 50.348 50.347c147.625 0 267.092-119.467 267.092-266.239 0-146.775-119.468-266.24-267.092-266.24-147.628 0-267.094 119.465-267.094 266.24z" />
<glyph unicode="&#xea1e;" glyph-name="surgeon" d="M812.375 623.782c7.68 3.412 15.36 8.532 20.48 16.212 10.24 13.652 14.505 30.72 10.24 46.932l-38.4 151.894c-11.948 46.080-52.908 77.653-99.84 77.653h-384.855c-46.932 0-88.746-32.426-99.839-77.653l-38.4-151.894c-4.266-16.212 0-34.132 10.24-46.932 6.827-8.532 15.36-13.652 24.747-17.068-26.453-62.292-40.96-132.265-40.96-207.36 0-241.492 151.892-437.76 338.772-437.76s339.628 196.268 339.628 437.76c0 73.388-14.508 144.215-41.812 208.215zM762.028 197.967c0 0 0 0-0.852 0l-35.84-9.385c-68.268-18.775-145.92-39.255-212.48-39.255s-139.948 20.48-206.508 39.255l-37.548 10.24c0 0 0 0-0.852 0-14.507 29.865-25.6 63.145-34.133 98.132 5.12 1.708 12.8 3.412 27.306 6.828 58.88 15.36 214.188 58.025 251.735 58.025 40.105 0 212.48-45.225 284.16-64.852-8.535-34.988-19.628-69.12-34.135-98.988h-0.852zM512.855 404.475c-38.4 0-149.335-28.16-262.828-58.88-13.653-3.412-22.187-5.972-25.6-6.828-3.413 24.748-5.973 51.2-5.973 77.655 0 75.945 14.506 142.505 42.666 203.092h507.735c28.16-61.44 42.665-131.412 42.665-203.092 0-26.455-2.56-52.055-5.972-76.8-44.372 11.945-242.348 65.705-292.692 65.705v-0.852zM261.975 828.582c6.825 27.307 30.72 46.080 58.88 46.080h384.852c27.308 0 52.052-18.773 58.88-45.227l38.4-151.892c0.852-5.12 0-8.535-2.56-10.24-1.708-1.708-4.268-5.12-9.388-5.12h-555.519c-5.12 0-8.533 2.56-9.386 5.12-1.707 1.705-3.414 5.12-2.56 10.24l38.401 151.892v-0.853zM515.415 20.475c-85.335 0-161.28 48.64-215.895 125.44 67.415-18.772 143.36-39.252 213.335-39.252 69.972 0 148.48 20.48 217.6 39.252-53.76-76.8-130.56-125.44-215.895-125.44h0.855zM427.52 767.995c0 11.947 9.388 21.334 21.335 21.334h42.665v42.666c0 11.947 9.388 21.334 21.335 21.334 11.945 0 21.332-9.387 21.332-21.334v-42.666h42.668c11.945 0 21.332-9.387 21.332-21.334s-9.388-21.333-21.332-21.333h-42.668v-42.667c0-11.948-9.388-21.332-21.332-21.332-11.948 0-21.335 9.385-21.335 21.332v42.667h-42.665c-11.948 0-21.335 9.387-21.335 21.333zM640.855 597.327c-36.695 0-66.56-23.040-79.36-55.465-21.335 9.385-55.468 16.212-97.28 0-11.948 32.425-42.668 55.465-79.36 55.465-46.935 0-85.335-38.4-85.335-85.332s38.4-85.332 85.335-85.332c41.812 0 75.092 30.72 81.92 69.972 52.052 29.012 89.6 0 91.305 0 0 0 0 0 0.855 0 7.68-38.4 40.96-68.268 81.92-68.268 46.932 0 85.332 38.4 85.332 85.335 0 46.932-38.4 85.332-85.332 85.332v-1.708zM384.855 469.327c-23.895 0-42.668 18.775-42.668 42.668s18.772 42.668 42.668 42.668c23.892 0 42.665-19.628 42.665-42.668s-19.625-42.668-42.665-42.668zM640.855 469.327c-23.040 0-42.668 18.775-42.668 42.668s18.772 42.668 42.668 42.668c23.892 0 42.665-18.775 42.665-42.668s-18.772-42.668-42.665-42.668z" />
<glyph unicode="&#xea24;" glyph-name="person" d="M618.66 669.875h-213.327c-58.877 0-106.665-47.788-106.665-106.665v-300.367c0-11.945 9.388-21.332 21.335-21.332 11.945 0 21.332 9.388 21.332 21.332v300.367c0 34.985 29.012 63.997 63.997 63.997h213.327c34.988 0 64-29.012 64-63.997v-300.367c0-11.945 9.385-21.332 21.332-21.332 11.945 0 21.332 9.388 21.332 21.332v300.367c0 58.877-47.785 106.665-106.665 106.665zM447.997 321.723c-11.945 0-21.332-9.388-21.332-21.332v-342.18c0-11.945 9.388-21.332 21.332-21.332 11.948 0 21.332 9.388 21.332 21.332v342.18c0 11.945-9.385 21.332-21.332 21.332zM575.995 321.723c-11.945 0-21.332-9.388-21.332-21.332v-342.18c0-11.945 9.388-21.332 21.332-21.332 11.948 0 21.332 9.388 21.332 21.332v342.18c0 11.945-9.385 21.332-21.332 21.332zM511.997 727.046c38.397 0 66.557 23.039 80.21 63.998 9.388 29.866 9.388 63.145 9.388 79.358 0 49.492-40.105 89.598-89.597 89.598s-89.597-40.106-89.597-89.598c0-16.213 0-48.639 9.385-78.505 13.652-41.812 41.812-63.998 80.212-63.998zM511.997 918.188c25.597 0 46.932-21.333 46.932-47.785 0-13.653 0-42.666-7.68-65.705-9.388-30.719-25.6-34.132-39.252-34.132s-29.012 4.266-39.252 34.986c-7.68 23.893-7.68 52.052-7.68 66.558 0 25.599 21.332 46.932 46.932 46.932z" />
<glyph unicode="&#xea25;" glyph-name="pair" d="M747.52 733.867c37.548 0 64.852 22.186 77.652 62.293 9.388 29.013 9.388 60.587 9.388 76.8 0 47.787-39.252 87.040-87.040 87.040s-87.040-39.253-87.040-87.040c0-15.36 0-47.787 9.388-75.947 12.8-40.106 40.105-62.293 77.652-62.293zM747.52 918.187c23.892 0 44.372-19.627 44.372-45.227 0-12.8 0-40.96-6.825-63.147-9.388-29.013-24.748-32.426-36.695-32.426-11.945 0-27.305 3.413-36.692 33.28-6.828 22.186-6.828 50.346-6.828 64 0 23.893 19.628 44.373 44.375 44.373zM277.332 733.867c37.548 0 64.855 22.186 77.655 62.293 9.385 29.013 9.385 60.587 9.385 76.8 0 47.787-39.252 87.040-87.040 87.040-47.786 0-87.039-39.253-87.039-87.040 0-15.36 0-47.787 9.387-75.947 12.8-40.106 40.107-62.293 77.652-62.293zM277.332 918.187c23.895 0 44.375-19.627 44.375-45.227 0-12.8 0-40.96-6.828-63.147-9.388-29.013-24.748-32.426-36.692-32.426-11.948 0-28.161 3.413-36.694 32.426-6.826 22.187-6.826 50.347-6.826 64 0 23.894 19.626 44.374 44.373 44.374zM375.468 669.012h-204.801c-58.88 0-106.667-47.785-106.667-106.665v-300.375c0-11.945 9.387-21.332 21.333-21.332s21.334 9.388 21.334 21.332v300.375c0 34.985 29.013 64 64 64h204.801c40.105 0 72.532-32.428 72.532-72.535v-297.812c0-11.948 9.388-21.332 21.332-21.332 11.948 0 21.335 9.385 21.335 21.332v297.812c0 64-51.2 115.2-115.2 115.2zM213.333 320.852c-11.946 0-21.333-9.385-21.333-21.332v-342.188c0-11.945 9.387-21.332 21.333-21.332s21.334 9.388 21.334 21.332v342.188c0 11.948-9.387 21.332-21.334 21.332zM341.332 320.852c-11.945 0-21.332-9.385-21.332-21.332v-342.188c0-11.945 9.388-21.332 21.332-21.332 11.948 0 21.335 9.388 21.335 21.332v342.188c0 11.948-9.388 21.332-21.335 21.332zM844.8 669.012h-204.8c-58.88 0-106.668-47.785-106.668-106.665v-306.348c0-11.948 9.388-21.332 21.335-21.332 11.945 0 21.332 9.385 21.332 21.332v306.348c0 34.985 28.16 64 64 64h204.8c40.108 0 72.532-32.428 72.532-72.535v-297.812c0-11.948 9.388-21.332 21.335-21.332 11.945 0 21.332 9.385 21.332 21.332v297.812c0 64-51.2 115.2-115.2 115.2zM682.668 320.852c-11.948 0-21.335-9.385-21.335-21.332v-342.188c0-11.945 9.388-21.332 21.335-21.332 11.945 0 21.332 9.388 21.332 21.332v342.188c0 11.948-9.388 21.332-21.332 21.332zM810.668 320.852c-11.948 0-21.335-9.385-21.335-21.332v-342.188c0-11.945 9.388-21.332 21.335-21.332 11.945 0 21.332 9.388 21.332 21.332v342.188c0 11.948-9.388 21.332-21.332 21.332z" />
<glyph unicode="&#xea27;" glyph-name="group" d="M292.572 486.011c35.84 0 62.172 21.21 74.606 59.976 8.776 28.526 8.776 59.978 8.776 75.338 0 46.080-37.302 84.114-83.382 84.114s-83.383-37.302-83.383-84.114c0-15.36 0-46.812 8.777-75.338 12.434-38.766 38.766-59.976 74.606-59.976zM292.572 668.867c25.6 0 46.812-21.21 46.812-48.274 0-13.166 0-40.96-7.314-63.634-9.51-30.72-26.332-34.378-39.498-34.378s-29.988 3.658-39.497 34.378c-7.314 22.674-7.314 50.468-7.314 64.366 0 26.332 21.211 46.812 46.811 46.812zM731.43 486.011c35.84 0 62.17 21.21 74.604 59.976 8.778 28.526 8.778 59.978 8.778 75.338 0 46.080-37.302 84.114-83.382 84.114s-83.384-37.302-83.384-84.114c0-15.36 0-46.812 8.778-75.338 12.434-38.766 38.766-59.976 74.606-59.976zM731.43 668.867c25.6 0 46.81-21.21 46.81-48.274 0-13.166 0-40.96-7.314-63.634-9.508-30.72-26.332-34.378-39.496-34.378-13.166 0-29.99 3.658-39.498 34.378-7.314 22.674-7.314 50.468-7.314 64.366 0 26.332 21.212 46.812 46.812 46.812zM804.572 429.691h-93.622c-25.6 43.886-72.412 73.142-126.538 73.142h-144.822c-54.126 0-100.938-29.988-126.538-73.142h-92.16c-81.189 0-147.017-65.83-147.017-147.018v-145.554c0-10.24 8.046-18.286 18.286-18.286s18.286 8.046 18.286 18.286v145.554c0 60.708 49.737 110.446 110.446 110.446h77.532c-2.926-11.702-5.12-24.138-5.12-37.304v-218.696c0-10.24 8.046-18.286 18.286-18.286s18.284 8.046 18.284 18.286v218.696c0 60.71 49.738 110.446 110.446 110.446h144.824c60.708 0 110.446-49.736 110.446-110.446v-218.696c0-10.24 8.044-18.286 18.284-18.286s18.286 8.046 18.286 18.286v218.696c0 13.166-2.194 25.603-5.12 37.304h78.264c60.708 0 110.446-49.738 110.446-110.446v-145.554c0-10.24 8.044-18.286 18.284-18.286s18.286 8.046 18.286 18.286v145.554c0 81.188-65.828 147.018-147.016 147.018zM512 558.42c35.84 0 62.172 21.212 74.606 59.978 8.778 28.526 8.778 59.978 8.778 75.338 0 46.079-37.304 84.113-83.384 84.113s-83.382-37.303-83.382-84.113c0-15.36 0-46.812 8.776-75.338 12.436-38.766 38.766-59.978 74.606-59.978zM512 741.278c25.6 0 46.812-21.211 46.812-48.274 0-13.166 0-40.96-7.314-63.634-9.508-30.72-26.332-34.378-39.498-34.378s-29.988 3.658-39.496 34.378c-7.314 22.674-7.314 50.468-7.314 64.366 0 26.33 21.21 46.81 46.81 46.81z" />
<glyph unicode="&#xea40;" glyph-name="porto-plus" d="M354.033 834.535c-6.561 12.812-13.639 20.132-20.334 24.404-6.545 4.177-15.174 7.017-27.592 7.017-17.471 0-31.85-5.316-45.050-16.819-12.259-10.682-17.165-22.006-17.165-35.944 0-10.005 3.159-20.659 11.473-32.309l142.339-219.115 77.632 42.684-121.303 230.082zM512 625.955l119.972 227.987c18.85 36.181 46.914 54.474 84.196 54.474 28.066 0 52.78-9.35 74.144-28.456s32.254-42.279 32.254-69.515c0-16.261-5.444-34.555-16.756-54.474l-154.123-233.26 272.644 11.453c31.393 1.428 55.72-6.423 73.379-23.905 17.656-17.482 26.29-38.176 26.29-62.436 0-23.905-8.632-44.599-26.29-62.081-17.266-17.482-41.986-25.333-73.379-23.905l-272.642 11.451 154.121-233.255c11.313-18.293 16.756-36.181 16.756-54.474 0-27.237-10.89-50.409-32.254-69.516s-46.078-28.457-74.144-28.457c-37.7 0-65.346 18.293-84.196 54.474l-119.878 225.382-120.267-228.229c-16.896-34.555-44.095-51.629-82.835-51.629-27.61 0-52.337 8.943-74.591 27.237-21.842 17.887-32.969 40.652-32.969 67.889 0 18.293 6.594 36.182 19.369 54.476l151.556 235.796-274.449-11.145c-31.584-1.43-56.061 6.436-72.643 23.954-16.976 17.518-25.267 38.257-25.267 62.211s8.291 44.69 25.267 62.208c16.581 17.518 41.059 25.384 72.643 23.954l274.555-11.487-151.662 233.546c-12.775 17.906-19.369 37.031-19.369 56.971 0 26.858 10.715 49.646 31.733 67.958s45.332 27.265 72.941 27.265c38.739 0 67.174-18.312 85.72-54.529l120.173-227.932zM388.478 387.667l123.516-70.202 123.532 70.242v120.495l-123.594 67.914-123.454-67.875v-120.573zM687.654 654.168l81.887 123.934c8.318 14.984 10.564 25.664 10.564 32.342 0 14.233-5.033 26.18-18.099 37.867-13.599 12.161-28.243 17.645-45.839 17.645-11.372 0-19.5-2.68-25.917-6.84-6.637-4.303-13.835-11.761-20.624-24.794l-120.991-229.929 77.861-42.784 61.158 92.558zM669.542 61.839l0.085-0.161c6.859-13.162 13.996-20.582 20.528-24.832 6.281-4.087 14.363-6.8 26.012-6.8 17.597 0 32.24 5.484 45.839 17.645 13.067 11.687 18.099 23.634 18.099 37.868 0 9.104-2.511 19.21-10.104 31.646l-143.189 216.707-78.301-44.522 121.028-227.55zM926.115 491.741l-248.129-10.423v-66.638l248.274-10.429c23.348-1.061 34.86 4.865 41.24 11.325l0.168 0.17 0.17 0.168c9.782 9.683 13.703 19.585 13.703 31.907 0 12.772-3.989 22.647-13.703 32.263-7.035 6.966-18.544 12.709-41.577 11.663l-0.145-0.006zM96.134 491.741l-0.146 0.005c-23.744 1.077-34.445-4.977-39.885-10.724l-0.171-0.181-0.173-0.179c-9.283-9.58-13.299-19.712-13.299-32.661 0-12.951 4.016-23.082 13.299-32.663l0.173-0.179 0.171-0.181c5.439-5.748 16.14-11.799 39.885-10.724l0.198 0.009 249.831 10.144v66.881l-249.883 10.454zM255.613 112.873c-9.229-13.216-11.721-22.772-11.721-30.164 0-13.863 4.907-24.799 17.411-35.038l0.060-0.049c14.906-12.253 30.171-17.578 47.629-17.578 12.991 0 21.331 2.797 27.121 6.413s11.92 9.853 17.569 21.407l121.936 231.435-78.057 44.367-141.949-220.792z" />
<glyph unicode="&#xea4e;" glyph-name="check" d="M512.85 896c-247.468 0-448-201.388-448-448s201.388-448 448-448c246.612 0 448 201.388 448 448s-201.388 448-448 448zM512.85 42.668c-223.572 0-405.333 181.76-405.333 405.332s181.761 405.333 405.333 405.333c223.572 0 405.332-181.761 405.332-405.333s-181.76-405.332-405.332-405.332zM719.357 610.988l-312.32-312.32-101.548 101.545c-8.532 8.535-22.188 8.535-29.868 0-8.532-8.532-8.532-22.185 0-29.865l116.908-116.908c0 0 9.388-5.972 15.36-5.972s11.092 2.56 15.36 5.972l327.68 327.68c8.532 8.532 8.532 22.188 0 29.868-8.532 8.532-22.188 8.532-29.868 0z" />
<glyph unicode="&#xeae8;" glyph-name="summer-house" d="M383.178 862.953c12.457-0.658 22.022-11.291 21.362-23.749l-2.485-47.018c-0.657-12.458-11.291-22.023-23.748-21.365s-22.022 11.291-21.365 23.749l2.485 47.018c0.66 12.458 11.291 22.023 23.751 21.365zM200.163 807.201c9.556 8.019 23.804 6.773 31.823-2.784l33.188-39.551c8.019-9.556 6.772-23.804-2.784-31.823s-23.804-6.772-31.823 2.784l-33.188 39.551c-8.019 9.556-6.772 23.804 2.784 31.823zM571.434 774.721c8.017-9.556 6.77-23.804-2.786-31.823l-36.912-30.975c-9.556-8.019-23.805-6.773-31.825 2.784-8.017 9.557-6.77 23.804 2.786 31.823l36.915 30.975c9.556 8.019 23.802 6.772 31.822-2.784zM373.826 715.877c-29.1 3.56-57.148-4.678-78.267-22.398s-34.102-43.913-35.649-73.187c-1.551-29.347 8.562-59.308 28.494-83.061 8.019-9.556 6.772-23.802-2.784-31.822-9.556-8.017-23.804-6.77-31.823 2.786-27.012 32.19-41.177 73.288-39 114.483 2.181 41.265 20.626 79.315 51.723 105.409s71.773 37.651 112.79 32.633c40.945-5.009 78.959-26.096 105.972-58.287 8.020-9.556 6.773-23.804-2.783-31.823-9.559-8.019-23.805-6.772-31.825 2.784-19.932 23.754-47.679 38.915-76.848 42.484zM113.466 636.651c1.515 12.381 12.781 21.191 25.164 19.676l46.735-5.716c12.383-1.515 21.193-12.782 19.678-25.163-1.515-12.384-12.781-21.194-25.164-19.679l-46.735 5.716c-12.383 1.515-21.193 12.782-19.678 25.166zM239.199 495.962c8.019-9.556 6.772-23.805-2.784-31.822l-36.915-30.976c-9.556-8.020-23.804-6.773-31.823 2.783-8.019 9.559-6.772 23.805 2.784 31.825l36.915 30.973c9.556 8.020 23.804 6.773 31.823-2.783zM584.282 642.572c-6.054 0-11.915-2.144-16.538-6.057l-282.095-238.694c-9.524-8.056-23.776-6.87-31.834 2.653s-6.87 23.775 2.653 31.834l282.092 238.691c0 0.001 0 0 0 0 12.779 10.815 28.982 16.75 45.722 16.75 16.742 0 32.943-5.935 45.722-16.75 0 0 0 0 0 0l234.002-198.021c9.523-8.059 10.71-22.311 2.65-31.834-8.056-9.523-22.311-10.71-31.834-2.653l-234.002 198.024c-4.62 3.912-10.481 6.057-16.538 6.057zM730.353 656.005c0 12.476 10.114 22.589 22.588 22.589h96.376c12.475 0 22.588-10.113 22.588-22.589v-96.376c0-12.475-10.114-22.588-22.588-22.588s-22.588 10.114-22.588 22.588v73.788h-73.788c-12.475 0-22.588 10.114-22.588 22.588zM367.435 389.463c12.475 0 22.588-10.114 22.588-22.588v-240.941c0-6.789 2.699-13.3 7.499-18.101s11.312-7.499 18.101-7.499h96.376c12.475 0 22.588-10.114 22.588-22.588s-10.114-22.588-22.588-22.588h-96.376c-18.769 0-36.774 7.457-50.046 20.73s-20.73 31.277-20.73 50.046v240.941c0 12.475 10.114 22.588 22.588 22.588zM648.861 326.391c40.385 40.385 95.157 63.072 152.269 63.072s111.884-22.688 152.269-63.072c40.385-40.382 63.072-95.157 63.072-152.269s-22.688-111.884-63.072-152.269c-40.385-40.385-95.157-63.072-152.269-63.072s-111.884 22.688-152.269 63.072c-40.385 40.385-63.072 95.157-63.072 152.269s22.688 111.887 63.072 152.269zM801.129 344.287c-45.131 0-88.413-17.926-120.323-49.839-31.913-31.913-49.842-75.195-49.842-120.326 0-45.128 17.929-88.41 49.842-120.323 31.91-31.913 75.192-49.842 120.323-49.842s88.413 17.929 120.326 49.842c31.913 31.913 49.839 75.195 49.839 120.323 0 45.131-17.926 88.413-49.839 120.326s-75.195 49.839-120.326 49.839zM900.584 248.254c9.981-7.484 12.005-21.643 4.521-31.624l-93.323-124.452c-4.021-5.346-9.156-9.788-15.029-12.984s-12.363-5.093-19.031-5.566c-6.668-0.47-13.363 0.494-19.628 2.831-6.261 2.337-11.954 5.993-16.682 10.719l-48.197 48.194c-8.821 8.821-8.821 23.124 0 31.946s23.124 8.821 31.946 0l48.179-48.179c0-0.003-0.003 0.003 0 0 0.154-0.154 0.346-0.277 0.548-0.352 0.208-0.078 0.428-0.108 0.648-0.093 0.217 0.015 0.431 0.078 0.626 0.184 0.193 0.105 0.361 0.25 0.494 0.425l93.307 124.431c7.484 9.981 21.643 12.005 31.621 4.521z" />
<glyph unicode="&#xeb2a;" glyph-name="star" d="M200.633-39.866c0 0-8.325 0.832-11.655 3.329-7.493 4.995-10.823 14.154-8.325 22.478l84.918 338.837c4.995 19.146-1.666 39.127-16.651 51.615l-228.943 188.983c-6.66 5.827-9.158 14.985-6.66 23.31 3.33 8.327 10.823 14.154 19.98 14.154h287.221c20.812 0 39.127 12.488 47.454 31.637l124.044 313.027c6.661 15.818 32.468 15.818 38.298 0l124.044-313.027c7.493-19.149 25.81-31.637 47.454-31.637h288.885c8.324 0 16.651-5.827 19.149-14.154 3.329-8.324 0-17.483-6.661-23.31l-228.944-188.983c-14.985-12.488-21.644-32.468-17.483-51.615l84.917-338.837c2.498-8.324-1.663-17.483-8.324-22.478-7.493-4.995-16.651-4.995-24.144 0l-269.737 193.144c-17.483 12.488-41.624 12.488-59.107 0l-269.738-193.144c0 0-8.325-4.163-11.655-4.163zM91.573 560.38l183.154-151.52c27.473-22.478 39.129-59.107 30.805-94.073l-71.598-283.89 223.115 159.844c32.468 23.31 75.761 23.31 107.395 0l223.117-159.844-71.598 283.89c-8.324 34.132 3.329 71.595 30.802 94.073l183.988 151.52h-230.607c-38.298 0-71.598 22.478-85.751 58.276l-104.898 263.91-104.898-263.91c-14.151-35.798-47.454-58.276-85.749-58.276h-227.278z" />
<glyph unicode="&#xeb2c;" glyph-name="tap" d="M926.593 301.481h-19.149v20.812c0 148.188-120.715 268.905-268.902 269.737h-108.229c-22.478 0-40.793 18.315-40.793 40.793v63.273c0 11.654-9.159 20.812-20.812 20.812h-59.941v63.271h64.937c9.156-35.798 40.793-62.439 79.088-62.439 45.79 0 83.254 37.463 83.254 83.252s-37.463 83.252-83.254 83.252c-38.295 0-69.932-26.641-79.088-62.439h-176.495c-9.159 35.798-40.793 62.439-79.089 62.439-45.789 0-83.252-37.463-83.252-83.252s37.463-83.252 83.252-83.252c38.297 0 69.931 26.641 79.089 62.439h68.266v-63.271h-61.605c-11.656 0-20.815-9.158-20.815-20.812v-63.273c0-22.478-18.315-40.793-40.793-40.793h-128.208v84.085c0 11.654-9.158 20.812-20.813 20.812s-20.813-9.159-20.813-20.812v-395.449c0-11.654 9.158-20.812 20.813-20.812s20.813 9.159 20.813 20.812v83.254h53.281c19.148 0 36.631-7.493 47.454-20.815 41.627-52.449 104.066-82.42 171.5-82.42 76.59 0 146.522 39.129 186.483 104.066h45.79c32.468 0 59.107-26.641 59.107-59.11v-3.329h-21.644c-11.656 0-20.815-9.159-20.815-20.812 0-11.656 9.159-20.815 20.815-20.815h269.737c11.654 0 20.812 9.159 20.812 20.815 0 11.654-9.159 20.812-20.812 20.812zM552.79 843.45c23.312 0 41.627-18.315 41.627-41.626s-18.315-41.626-41.627-41.626c-23.31 0-41.624 18.315-41.624 41.626s18.315 41.626 41.624 41.626zM218.118 760.198c-23.311 0-41.626 18.315-41.626 41.626s18.315 41.626 41.626 41.626c23.31 0 41.626-18.315 41.626-41.626s-18.315-41.626-41.626-41.626zM719.295 301.481v3.329c0 55.778-44.956 100.734-100.734 100.734h-57.444c-7.493 0-14.985-4.161-18.317-10.822-30.802-57.444-90.744-93.241-156.512-93.241-54.115 0-104.898 24.141-139.032 67.434-18.315 23.31-47.454 36.629-79.922 36.629h-53.281v144.859h128.208c44.956 0 82.42 37.463 82.42 82.42v42.459h122.38v-42.459c0-44.956 36.632-82.42 82.42-82.42h108.227c125.712 0 227.278-103.232 227.278-228.11v-20.812h-145.69zM812.537 211.568c-4.161 5.827-9.99 9.99-17.483 9.99s-14.151-3.332-17.483-9.99l-69.098-109.061c-9.99-15.817-14.985-34.134-14.985-53.28 0-55.781 45.788-100.737 101.566-100.737 55.781 0 101.568 44.956 101.568 100.737 0 19.146-4.995 37.463-14.985 53.28l-68.266 109.061h-0.834zM795.054-9.883c-33.3 0-59.941 26.641-59.941 59.11 0 10.822 2.498 21.644 8.327 30.802l50.783 80.754 50.783-80.754c5.829-9.159 8.327-19.98 8.327-30.802 0-32.468-26.641-59.11-59.941-59.11z" />
<glyph unicode="&#xeb2d;" glyph-name="tools" d="M980.707 119.95l-377.963 378.798 219.785 219.786c14.151-8.325 29.137-14.154 44.956-14.154 3.329 0 6.658 0 9.99 0 26.639 3.332 50.783 18.316 64.937 40.794l64.102 103.233c4.995 8.325 4.163 19.148-3.329 25.808l-53.28 53.281c-6.661 6.66-17.483 8.325-25.81 3.33l-104.063-63.272c-23.312-14.153-38.298-37.463-41.627-64.937-2.498-19.98 4.163-38.296 13.319-54.946l-220.617-220.619-90.744 91.578c-17.483 17.483-25.81 39.129-22.478 59.11 10.822 70.764-13.322 142.36-63.273 192.311-59.107 61.607-147.355 81.587-229.775 53.281-6.66-2.498-11.655-8.325-13.32-14.985s0-14.153 5.828-19.148l69.099-69.099c25.807-25.808 25.807-68.267 0-94.075-12.488-12.488-29.138-19.981-47.454-19.981-17.483 0-34.133 6.66-47.454 19.981l-69.932 69.932c-4.995 4.995-12.488 6.66-19.148 5.828-6.66-1.665-12.488-6.66-14.985-13.32-29.138-81.588-9.158-173.998 51.616-233.939 49.951-49.951 121.548-74.093 192.312-63.271 19.149 3.329 41.627-5.827 59.11-23.31l30.802-31.637c0 0-2.498 0-2.498-1.666l-314.693-314.693c-41.626-41.624-41.626-109.893 0-151.517 20.813-20.815 48.286-31.637 75.759-31.637s54.947 10.822 75.76 31.637l314.693 315.524c0 0 0 1.666 0.832 2.498l318.022-318.022c20.815-20.815 48.288-31.637 75.761-31.637s54.946 10.822 75.759 31.637c41.627 41.624 41.627 109.893 0 151.517zM843.341 832.589l89.912 54.946 29.971-29.971-55.778-89.912c-7.493-12.488-19.98-19.98-34.134-21.645s-28.305 3.33-38.295 13.32c-9.99 9.99-14.985 24.143-13.322 39.129 1.666 14.153 9.99 26.64 22.478 34.133zM482.027 313.097l-314.692-315.527c-25.808-25.807-66.601-25.807-92.41 0-25.808 25.81-25.808 67.434 0 92.41l314.692 315.527c0 0 0 1.663 0.834 2.498l94.073-94.076c0 0-2.498 0-2.498-1.666zM952.402-3.262c-25.81-25.807-66.602-25.807-92.41 0l-498.681 498.681c-26.641 26.639-62.439 39.961-94.907 34.966-56.611-8.327-115.72 10.822-156.514 51.615-41.626 41.627-59.109 99.902-50.784 157.347l44.124-44.123c20.813-19.98 47.454-31.637 76.592-31.637s55.779 11.656 76.592 31.637c42.459 42.458 42.459 110.725 0 153.183l-43.291 43.291c55.779 8.325 113.223-9.99 154.015-50.784 40.795-40.794 59.941-99.070 51.617-156.515-4.995-32.468 8.324-68.266 34.134-94.907l498.678-499.512c25.81-25.807 25.81-67.434 0-92.41zM854.998 124.945c-17.483 0-31.637-14.151-31.637-31.634s14.154-31.637 31.637-31.637c17.483 0 31.634 14.154 31.634 31.637s-14.151 31.634-31.634 31.634zM169 124.945c-17.483 0-31.636-14.151-31.636-31.634s14.153-31.637 31.636-31.637c17.483 0 31.636 14.154 31.636 31.637s-14.153 31.634-31.636 31.634z" />
<glyph unicode="&#xeb34;" glyph-name="Attach" d="M768 217.6v409.6c0 12.8 0 25.6-12.8 25.6s-12.8-12.8-12.8-25.6v-396.8c0-128-102.4-217.6-230.4-217.6s-230.4 89.6-230.4 217.6v499.2c0 76.8 76.8 153.6 153.6 153.6s153.6-76.8 153.6-153.6v-486.4c0-38.4 0 0 0-25.6s0-76.8-76.8-76.8c-76.8 0-76.8 51.2-76.8 76.8s0 11.387 0 25.6v435.2c0 12.8 0 25.6-12.8 25.6s-12.8-12.8-12.8-25.6v-460.8c0-51.2 18.243-69.443 25.6-76.8s25.6-25.6 76.8-25.6c51.2 0 68.157 16.957 76.8 25.6s25.6 25.6 25.6 76.8v512c0 100.519-74.798 179.2-179.2 179.2-104.404 0-179.2-78.681-179.2-179.2v-512c0-128 102.4-230.4 256-230.4s256 102.4 256 230.4z" />
<glyph unicode="&#xeb35;" glyph-name="Calendar" d="M875.523 768h-87.040v42.667c0 11.946-9.385 21.333-21.332 21.333s-21.332-9.387-21.332-21.333v-42.667h-213.335v42.667c0 11.946-9.385 21.333-21.332 21.333s-21.332-9.387-21.332-21.333v-42.667h-213.335v42.667c0 11.946-9.385 21.333-21.332 21.333s-21.334-9.387-21.334-21.333v-42.667h-86.186c-46.080 0-84.48-37.547-84.48-84.48v-599.892c0-46.080 37.546-84.48 84.48-84.48h727.892c46.080 0 83.628 37.545 83.628 84.48v599.892c0 46.080-37.548 84.48-83.628 84.48zM148.483 725.333h86.187v-64.001c0-11.945 9.386-21.332 21.332-21.332 11.948 0 21.335 9.388 21.335 21.332v64.001h213.332v-64.001c0-11.945 9.388-21.332 21.332-21.332 11.948 0 21.335 9.388 21.335 21.332v64.001h213.332v-64.001c0-11.945 9.388-21.332 21.332-21.332 11.948 0 21.335 9.388 21.335 21.332v64.001h87.040c23.040 0 40.96-18.773 40.96-41.813v-107.52h-810.668v107.52c0 23.040 18.773 41.813 41.813 41.813zM876.378 42.668h-727.894c-23.040 0-41.813 18.772-41.813 41.812v449.708h810.668v-449.708c0-23.040-18.775-41.812-40.96-41.812zM255.15 415.572c-17.92 0-32.427-14.505-32.427-32.425s14.507-32.428 32.427-32.428c17.92 0 32.428 14.508 32.428 32.428s-14.508 32.425-32.428 32.425zM512.003 415.572c-17.92 0-32.425-14.505-32.425-32.425s14.505-32.428 32.425-32.428c17.92 0 32.428 14.508 32.428 32.428s-14.508 32.425-32.428 32.425zM768.003 415.572c-17.92 0-32.425-14.505-32.425-32.425s14.505-32.428 32.425-32.428c17.92 0 32.428 14.508 32.428 32.428s-14.508 32.425-32.428 32.425zM255.15 224.428c-17.92 0-32.427-14.508-32.427-32.428s14.507-32.428 32.427-32.428c17.92 0 32.428 14.508 32.428 32.428s-14.508 32.428-32.428 32.428zM512.003 224.428c-17.92 0-32.425-14.508-32.425-32.428s14.505-32.428 32.425-32.428c17.92 0 32.428 14.508 32.428 32.428s-14.508 32.428-32.428 32.428zM768.003 224.428c-17.92 0-32.425-14.508-32.425-32.428s14.505-32.428 32.425-32.428c17.92 0 32.428 14.508 32.428 32.428s-14.508 32.428-32.428 32.428z" />
<glyph unicode="&#xeb36;" glyph-name="Call-center" d="M915.773 490.479h-66.602v64.937c0 98.237-41.627 193.144-114.888 259.746-74.095 67.434-169.834 99.070-269.737 89.080-177.327-16.65-315.525-176.494-315.525-362.979v-50.783h-66.602c-44.956 0-82.42-37.463-82.42-83.254v-146.522c0-45.79 37.463-83.254 83.252-83.254h87.415c11.655 0 20.813 9.159 20.813 20.815v342.166c0 165.671 122.381 307.199 278.062 321.352 87.415 8.325 172.332-19.148 237.268-78.257 64.105-58.276 101.568-141.529 101.568-228.944v-399.61c0-34.132-27.473-61.605-61.607-61.605h-84.085c-9.156 35.798-40.793 62.439-79.088 62.439-45.79 0-83.254-37.463-83.254-83.254 0-45.788 37.463-83.251 83.254-83.251 38.295 0 69.932 26.641 79.088 62.439h84.085c56.612 0 103.232 45.788 103.232 103.232v21.646h66.602c45.788 0 83.251 37.463 83.251 83.251v146.524c0 45.788-37.463 83.251-83.251 83.251zM149.021 219.076h-66.602c-22.478 0-41.626 18.315-41.626 41.627v146.522c0 23.312 18.316 41.627 41.626 41.627h66.602v-229.776zM582.763 31.759c-23.31 0-41.624 19.149-41.624 41.627s18.315 41.624 41.624 41.624c23.312 0 41.627-19.146 41.627-41.624s-18.315-41.627-41.627-41.627zM956.566 260.703c0-23.312-18.315-41.627-41.627-41.627h-66.6v229.776h66.6c22.478 0 41.627-18.315 41.627-41.627v-146.522z" />
<glyph unicode="&#xeb37;" glyph-name="Car-clean" horiz-adv-x="999" d="M853.334 532.885h-10.824c-36.629 0-72.429 13.319-99.902 37.463l-120.715 104.066c-34.134 29.971-77.424 45.788-123.212 45.788h-227.278c-42.459 0-80.755-25.807-96.573-65.768l-49.119-124.046c-70.764-9.99-125.71-69.932-125.71-143.193 0-73.263 59.941-139.032 135.701-144.859 4.163-59.11 53.281-106.563 114.055-106.563s109.061 46.622 114.056 105.729h272.234c4.161-59.107 53.28-105.729 113.222-105.729s109.893 47.454 114.056 106.563c75.759 4.995 136.532 67.434 136.532 144.859s-65.768 145.69-145.69 145.69zM450.393 678.575h49.951c34.966 0 69.1-12.488 95.742-35.798l120.715-104.066c0 0 4.995-4.161 8.324-5.827h-273.898v145.69h-0.834zM214.79 639.448c9.99 24.141 32.468 39.127 58.276 39.127h135.702v-145.69h-236.437l42.459 106.563zM250.588 178.231c-39.96 0-73.261 32.468-73.261 72.429s32.468 73.261 73.261 73.261c40.795 0 73.263-32.468 73.263-73.261s-32.468-72.429-73.263-72.429zM750.1 178.231c-39.961 0-73.261 32.468-73.261 72.429s32.468 73.261 73.261 73.261c40.795 0 73.263-32.468 73.263-73.261s-32.468-72.429-73.263-72.429zM859.161 284.794c-14.985 46.619-57.444 80.754-109.061 80.754-51.615 0-94.907-34.134-109.058-81.588h-281.393c-14.154 46.622-57.444 81.588-109.061 81.588-51.615 0-94.074-34.134-109.059-80.754-54.946 2.498-99.070 47.454-99.070 103.232s46.621 104.066 104.065 104.066h707.642c57.444 0 104.066-46.622 104.066-104.066s-44.124-100.734-99.071-103.232zM769.249 791.798c11.656 0 20.812 9.158 20.812 20.813s-9.156 20.813-20.812 20.813h-51.617v51.616c0 11.655-9.156 20.813-20.812 20.813s-20.812-9.158-20.812-20.813v-51.616h-51.617c-11.656 0-20.812-9.158-20.812-20.813s9.156-20.813 20.812-20.813h51.617v-51.616c0-11.655 9.156-20.813 20.812-20.813s20.812 9.158 20.812 20.813v51.616h51.617zM834.185 677.743h-11.656v11.656c0 11.654-9.156 20.812-20.812 20.812s-20.812-9.159-20.812-20.812v-11.656h-11.656c-11.656 0-20.812-9.159-20.812-20.812 0-11.656 9.156-20.815 20.812-20.815h11.656v-11.654c0-11.656 9.156-20.815 20.812-20.815s20.812 9.159 20.812 20.815v11.654h11.656c11.656 0 20.812 9.159 20.812 20.815 0 11.654-9.156 20.812-20.812 20.812zM531.98 833.424h-11.656v11.655c0 11.655-9.156 20.813-20.812 20.813s-20.812-9.158-20.812-20.813v-11.655h-11.656c-11.656 0-20.812-9.158-20.812-20.813s9.156-20.813 20.812-20.813h11.656v-11.655c0-11.655 9.156-20.813 20.812-20.813s20.812 9.158 20.812 20.813v11.655h11.656c11.656 0 20.812 9.158 20.812 20.813s-9.156 20.813-20.812 20.813z" />
<glyph unicode="&#xeb38;" glyph-name="Card-add" d="M208.213 383.992h138.239c32.428 0 58.88 26.455 58.88 58.88v74.24c0 32.428-26.452 58.88-58.88 58.88h-138.239c-32.426 0-58.88-26.452-58.88-58.88v-74.24c0-32.425 26.454-58.88 58.88-58.88zM192 517.112c0 8.535 6.827 16.215 16.213 16.215h138.239c8.535 0 16.215-6.828 16.215-16.215v-74.24c0-8.532-6.828-16.212-16.215-16.212h-138.239c-9.386 0-16.213 7.68-16.213 16.212v74.24zM447.148 214.18c0-11.948-9.388-21.332-21.335-21.332h-255.146c-11.947 0-21.334 9.385-21.334 21.332s9.387 21.332 21.334 21.332h255.146c11.948 0 21.335-9.385 21.335-21.332zM873.812 214.18c0-11.948-9.385-21.332-21.332-21.332h-255.148c-11.945 0-21.332 9.385-21.332 21.332s9.388 21.332 21.332 21.332h255.148c11.948 0 21.332-9.385 21.332-21.332zM657.068 663.032c0 11.948 9.385 21.335 21.332 21.335h90.452v90.453c0 11.946 9.388 21.333 21.335 21.333 11.945 0 21.332-9.387 21.332-21.333v-90.453h90.452c11.948 0 21.335-9.388 21.335-21.335 0-11.945-9.388-21.332-21.335-21.332h-90.452v-90.452c0-11.948-9.388-21.335-21.332-21.335-11.948 0-21.335 9.388-21.335 21.335v90.452h-90.452c-11.948 0-21.332 9.388-21.332 21.332zM790.188 897.7c-99.84 0-184.32-62.294-218.455-150.187h-471.039c-55.466-0.853-100.693-46.081-100.693-101.546v-523.095c0-56.32 45.227-101.545 100.693-101.545h821.759c55.468 0 100.695 45.225 100.695 100.692v540.16c0 128.854-104.96 234.667-234.668 234.667l1.708 0.854zM790.188 855.033c105.812 0 192-86.187 192-192.001 0-105.812-86.188-192-192-192-105.815 0-192 86.188-192 192 0 105.814 86.185 192.001 192 192.001zM982.188 122.872c0-32.425-26.455-58.025-58.028-58.025h-823.467c-32.426 0-58.026 26.452-58.026 58.025v523.095c0 32.425 26.453 58.025 58.026 58.025h458.239c-2.56-13.652-4.265-27.305-4.265-41.812 0-128.852 104.96-234.668 234.665-234.668 79.36 0 149.335 40.108 192 100.695v-406.188l0.855 0.852z" />
<glyph unicode="&#xeb39;" glyph-name="List" d="M276.48 748.367c0-11.946-9.388-21.333-21.334-21.333h-64c-11.946 0-21.333 9.387-21.333 21.333s9.387 21.334 21.333 21.334h64c11.947 0 21.334-9.387 21.334-21.334zM383.145 727.033h448c11.948 0 21.335 9.387 21.335 21.333s-9.388 21.334-21.335 21.334h-448c-11.945 0-21.332-9.387-21.332-21.334s9.388-21.333 21.332-21.333zM255.146 620.367h-64c-11.946 0-21.333-9.388-21.333-21.335 0-11.945 9.387-21.332 21.333-21.332h64c11.947 0 21.334 9.388 21.334 21.332 0 11.948-9.388 21.335-21.334 21.335zM832 620.367h-448c-11.948 0-21.335-9.388-21.335-21.335 0-11.945 9.388-21.332 21.335-21.332h448c11.945 0 21.332 9.388 21.332 21.332 0 11.948-9.388 21.335-21.332 21.335zM255.146 471.032h-64c-11.946 0-21.333-9.385-21.333-21.332s9.387-21.332 21.333-21.332h64c11.947 0 21.334 9.385 21.334 21.332s-9.388 21.332-21.334 21.332zM832 471.032h-448c-11.948 0-21.335-9.385-21.335-21.332s9.388-21.332 21.335-21.332h448c11.945 0 21.332 9.385 21.332 21.332s-9.388 21.332-21.332 21.332zM255.146 321.7h-64c-11.946 0-21.333-9.388-21.333-21.332 0-11.948 9.387-21.335 21.333-21.335h64c11.947 0 21.334 9.388 21.334 21.335 0 11.945-9.388 21.332-21.334 21.332zM832 321.7h-448c-11.948 0-21.335-9.388-21.335-21.332 0-11.948 9.388-21.335 21.335-21.335h448c11.945 0 21.332 9.388 21.332 21.335 0 11.945-9.388 21.332-21.332 21.332zM255.146 172.367h-64c-11.946 0-21.333-9.388-21.333-21.335 0-11.945 9.387-21.332 21.333-21.332h64c11.947 0 21.334 9.388 21.334 21.332 0 11.948-9.388 21.335-21.334 21.335zM832 172.367h-448c-11.948 0-21.335-9.388-21.335-21.335 0-11.945 9.388-21.332 21.335-21.332h448c11.945 0 21.332 9.388 21.332 21.332 0 11.948-9.388 21.335-21.332 21.335z" />
<glyph unicode="&#xeb3a;" glyph-name="locked-check" horiz-adv-x="999" d="M499.51 435.512c-45.788 0-83.251-37.463-83.251-83.251 0-38.298 26.641-69.932 62.439-79.090v-143.193c0-11.656 9.159-20.815 20.812-20.815 11.656 0 20.815 9.159 20.815 20.815v143.193c35.798 9.159 62.439 40.793 62.439 79.090 0 45.788-37.463 83.251-83.254 83.251zM499.51 310.634c-23.31 0-41.624 18.315-41.624 41.627 0 23.31 18.315 41.624 41.624 41.624 23.312 0 41.627-18.315 41.627-41.624 0-23.312-18.315-41.627-41.627-41.627zM918.268 140.8l-83.251-83.251c0 0-9.159-5.829-14.985-5.829-5.829 0-10.824 1.666-14.985 5.829l-46.622 46.619c-8.324 8.327-8.324 21.646 0 29.139s21.646 8.324 29.139 0l32.468-32.468 69.098 69.1c8.327 8.324 21.646 8.324 29.139 0 8.324-8.327 8.324-21.646 0-29.139zM999.022 127.481c0 84.917-63.271 154.015-145.69 164.005v188.151c0 58.276-47.454 105.729-105.729 105.729h-40.795v166.504c0.834 114.888-92.41 208.13-207.298 208.13s-208.129-93.242-208.129-208.13v-166.504h-39.961c-58.277 0-105.73-47.454-105.73-105.729v-413.763c0-58.276 47.454-105.729 105.73-105.729h581.932c91.578 0 165.671 74.927 165.671 166.502v0.834zM333.007 751.87c0 91.577 74.927 166.504 166.502 166.504 91.578 0 166.505-74.927 166.505-166.504v-166.504h-333.007v166.504zM187.315 66.705v413.763c0 34.966 28.306 64.105 64.104 64.105h496.183c34.966 0 64.102-28.307 64.102-64.105v-188.149c-82.42-9.99-145.69-79.922-145.69-164.007 0-49.951 22.478-94.076 57.444-124.878h-472.871c-34.967 0-64.105 28.305-64.105 64.105l0.832-0.834zM832.519 3.434c-69.1 0-124.878 55.778-124.878 124.878s55.778 124.878 124.878 124.878c69.098 0 124.878-55.778 124.878-124.878s-55.781-124.878-124.878-124.878z" />
<glyph unicode="&#xeb3b;" glyph-name="Mobile-payment" d="M318.292 98.132c-17.92 0-32.425-14.505-32.425-32.425s14.505-32.428 32.425-32.428c17.92 0 32.428 14.508 32.428 32.428s-14.508 32.425-32.428 32.425zM554.668 960h-469.334c-46.933 0-85.333-38.4-85.333-85.333v-854.187c0-46.932 38.4-85.332 85.333-85.332h469.334c46.932 0 85.332 38.4 85.332 85.332v854.187c0 46.933-38.4 85.333-85.332 85.333zM597.332 21.332c0-23.040-18.772-42.665-42.665-42.665h-469.334c-23.040 0-42.666 18.772-42.666 42.665v853.334c0 23.040 18.773 42.666 42.666 42.666h469.334c23.040 0 42.665-18.773 42.665-42.666v-853.334zM255.147 812.373h128.001c11.945 0 21.332 9.387 21.332 21.334s-9.388 21.333-21.332 21.333h-128.001c-11.947 0-21.334-9.387-21.334-21.333s9.387-21.334 21.334-21.334zM758.612 858.453c-8.532 8.534-21.332 8.534-29.865 0-8.535-8.533-8.535-22.186 0-29.866 57.172-58.88 88.745-136.534 88.745-219.307s-31.572-160.428-88.745-219.308c-8.535-8.532-7.68-22.185 0-29.865 4.265-4.268 9.385-5.975 14.505-5.975 5.975 0 11.095 2.56 15.36 6.828 64.855 66.56 100.695 155.308 100.695 248.32s-35.84 181.76-100.695 248.32zM861.012 953.173c-8.532 8.533-22.185 8.533-29.865 0-8.535-8.533-8.535-22.187 0-29.867 82.772-83.627 128.852-194.56 128.852-313.174 0-118.612-46.080-229.545-128.852-313.172-8.535-8.532-8.535-22.188 0-29.868 4.265-4.265 9.385-5.972 15.36-5.972 5.972 0 11.092 1.708 15.36 5.972 91.305 91.308 141.652 213.335 141.652 343.040 0 129.708-50.348 250.881-141.652 343.041zM330.24 476.16c-56.32 17.068-91.307 29.868-91.307 70.828s37.547 61.44 75.094 61.44c69.972 0 87.040-52.055 87.892-54.615 3.412-11.092 15.36-17.92 26.452-14.505 11.095 3.412 17.92 15.36 14.508 26.452-7.68 26.452-39.252 73.388-104.96 83.628v28.16c0 11.945-9.388 21.332-21.332 21.332-11.948 0-21.335-9.388-21.335-21.332v-29.015c-57.172-7.68-99.839-46.932-99.839-100.692 0-75.092 67.414-95.572 121.174-111.788 60.585-18.772 97.28-32.425 97.28-81.065 0-29.868-33.28-58.028-76.8-64.855-20.48-3.412-87.894-7.68-115.201 74.24-3.414 11.095-15.36 17.068-27.307 13.655-11.093-3.415-17.067-16.215-13.653-27.308 22.186-66.56 67.413-94.72 113.493-101.548v-28.16c0-11.945 9.388-21.332 21.332-21.332 11.948 0 21.335 9.388 21.335 21.332v26.455c0 0 4.265 0 5.972 0 64 10.24 112.64 56.32 112.64 107.52 0 82.772-70.828 104.105-128 122.025z" />
<glyph unicode="&#xeb3c;" glyph-name="Pie-chart" d="M936.105 468.477h-381.44c-11.948 0-21.335 9.385-21.335 21.332v382.294c0 5.973 2.56 11.946 6.828 16.213s10.24 5.973 16.212 5.12c211.628-21.333 379.735-190.294 401.068-401.919 0-5.975-1.708-11.948-5.12-16.215-4.268-4.265-9.388-6.825-15.36-6.825zM576.85 511.142h336.215c-27.308 172.375-163.84 309.761-336.215 337.068v-337.068zM509.437-2.563c-122.028 0-233.812 49.492-314.88 129.705 0 0-1.706 0.855-2.56 1.708 0 0-1.706 1.708-1.706 2.56-80.214 81.068-128.854 192.852-128.854 314.88 0 230.4 172.373 421.547 400.212 446.294 5.975 0 11.948-1.707 16.215-5.12 4.265-4.267 6.825-9.387 6.825-16.214v-445.44h448c5.975 0 11.948-2.56 16.215-6.828 4.265-4.265 5.972-10.24 5.12-16.212-23.040-230.4-214.188-404.48-446.295-404.48zM236.371 145.062c71.679-64.852 167.254-104.105 271.359-104.105 201.388 0 369.495 145.92 400.215 342.185h-436.055l-235.519-238.080zM442.877 846.503c-194.56-31.574-338.773-199.681-338.773-399.361 0-104.105 39.253-199.68 104.107-271.36l235.519 238.080v432.641h-0.852z" />
<glyph unicode="&#xeb3d;" glyph-name="Gift-box" d="M938.668 747.523h-107.52v50.346c0 36.694-20.48 69.974-52.908 86.187s-71.68 12.8-100.692-8.533l-165.548-122.88-165.548 122.88c-29.012 22.186-68.265 25.6-100.692 8.533-32.427-16.213-52.907-49.493-52.907-86.187v-50.346h-107.52c-11.946 0-21.333-9.387-21.333-21.334v-170.667c0-11.945 9.387-21.332 21.333-21.332h42.667v-451.412c0-46.080 37.547-83.628 83.627-83.628h600.746c46.080 0 83.628 37.548 83.628 83.628v451.412h42.668c11.945 0 21.332 9.388 21.332 21.332v170.667c0 11.947-9.388 21.334-21.332 21.334zM702.292 841.39c17.068 12.8 37.548 14.507 56.32 5.12 18.775-9.386 29.868-27.306 29.868-48.64v-50.346h-212.48l126.292 93.866zM234.667 797.87c0 20.48 11.093 39.254 29.866 48.64 18.775 9.387 39.255 7.68 56.32-5.12l126.295-93.866h-212.481v50.346zM105.813 704.857h386.559v-128.854h-385.706v128.854h-0.854zM169.813 82.778v451.412h323.414v-492.372h-282.454c-23.040 0-40.96 18.772-40.96 40.96zM853.332 82.778c0-23.040-18.772-40.96-40.96-40.96h-276.48v492.372h317.44v-451.412zM917.332 576.858h-381.44v127.999h381.44v-127.999z" />
<glyph unicode="&#xeb3e;" glyph-name="Car-signal" d="M1023.148 281.725c0 82.706-66.504 149.21-149.21 149.21h-11.085c-37.514 0-74.176 13.642-102.313 38.367l-123.63 106.578c-34.959 30.694-79.296 46.894-126.19 46.894h-232.765c-43.483 0-82.704-26.429-98.904-67.356l-50.305-127.040c-72.473-9.38-128.746-71.621-128.746-146.652s61.389-142.387 138.978-148.357c4.263-60.536 54.568-109.135 116.809-109.135s111.694 47.747 116.808 108.283h278.81c4.262-60.536 54.566-108.283 115.955-108.283s112.548 48.599 116.81 109.135c77.588 5.117 139.83 69.064 139.83 148.357zM609.626 543.48l123.63-106.578c0 0 5.115-3.41 8.527-5.967h-280.515v149.21h51.159c35.809 0 70.766-12.79 98.051-36.664zM219.977 540.070c9.379 24.727 33.252 40.074 59.683 40.074h138.977v-149.21h-242.144l43.484 109.135zM256.64 66.865c-40.926 0-75.031 33.252-75.031 75.031s33.252 74.179 75.031 74.179c41.779 0 75.031-33.252 75.031-74.179s-33.252-75.031-75.031-75.031zM768.212 66.865c-40.924 0-75.031 33.252-75.031 75.031s33.254 74.179 75.031 74.179c41.779 0 75.031-33.252 75.031-74.179s-33.252-75.031-75.031-75.031zM879.908 176c-14.495 47.747-58.831 82.706-111.695 82.706-52.861 0-97.198-34.959-111.693-83.558h-288.187c-14.495 48.599-58.831 83.558-111.693 83.558-52.863 0-96.347-34.959-111.694-82.706-56.273 2.557-101.462 48.599-101.462 105.725s47.747 106.578 106.578 106.578h724.729c58.831 0 106.578-47.747 106.578-106.578s-45.189-103.168-101.46-105.725zM582.461 777.946c-11.658-1.74-18.734-12.15-16.509-24.291 2.222-12.141 13.327-20.461 24.292-18.201 106.995 14.099 217.347-68.586 239.439-179.411 1.111-6.070 4.332-10.578 8.497-13.699 4.856-3.64 10.437-4.68 16.264-3.809 10.964 2.26 18.511 13.366 16.509 24.292-13.394 66.598-50.601 125.903-104.735 166.465s-119.644 58.224-183.286 49.349zM559.688 836.909c4.163-3.12 9.966-5.372 15.793-4.503 77.632 10.963 156.157-9.121 221.396-58.004s110.026-120.151 124.229-200.973c2.225-12.142 13.327-20.462 24.292-18.202 11.656 1.741 19.203 12.844 16.509 24.292-16.899 92.268-67.656 173.246-141.916 228.89-74.263 55.644-164.17 79.018-252.293 66.489-11.656-1.74-18.732-12.15-16.507-24.291 1.111-6.070 4.332-10.578 9.19-14.219z" />
<glyph unicode="&#xeb3f;" glyph-name="Transito-mais-gentil" horiz-adv-x="1050" d="M474.947 882.216c27.558 27.557 72.238 27.557 99.794 0l384.325-384.326c27.558-27.556 27.558-72.236 0-99.791l-384.325-384.328c-27.556-27.556-72.236-27.556-99.794 0l-384.325 384.328c-27.557 27.556-27.557 72.236 0 99.791l384.325 384.326zM444.777 912.386l-384.325-384.327c-44.219-44.219-44.219-115.912 0-160.131l384.325-384.328c44.219-44.219 115.914-44.219 160.133 0l384.325 384.328c44.221 44.219 44.221 115.912 0 160.131l-384.325 384.327c-44.219 44.219-115.912 44.219-160.133 0zM510.026 527.132c-54.305 54.3-126.236 56.835-170.445 12.628-22.569-22.569-31.373-50.806-31.004-77.263 0.379-27.113 10.314-50.143 22.216-62.042l194.322-194.324 58.028 58.028c8.33 8.33 21.839 8.33 30.17 0s8.33-21.839 0-30.17l-73.111-73.111c-4.001-4.001-9.428-6.249-15.086-6.249s-11.085 2.248-15.086 6.249l-209.405 209.405c-21.363 21.363-34.209 55.895-34.708 91.617-0.507 36.375 11.715 76.244 43.497 108.029 59.82 59.82 149.481 55.521 215.698 1.068 66.248 54.469 156.042 58.734 215.936-1.16 32.038-32.038 43.53-72.535 42.627-108.943-0.886-35.653-13.765-70.124-34.253-90.611l-56.758-56.758c-8.33-8.33-21.839-8.33-30.17 0s-8.33 21.839 0 30.17l56.758 56.758c10.929 10.929 21.084 33.925 21.768 61.501 0.668 26.816-7.734 55.306-30.141 77.714-44.311 44.311-116.39 41.756-170.68-12.534-8.33-8.333-21.839-8.333-30.17-0.003zM637.363 284.884l25.434 110.216 82.662-78.423-108.096-31.793z" />
<glyph unicode="&#xeb41;" glyph-name="Communication-tower" horiz-adv-x="999" d="M193.978 345.622c-4.995 0-10.823 1.666-14.985 5.827-77.424 77.424-119.883 179.824-119.883 288.885s43.291 212.293 120.715 288.885c8.325 8.325 21.646 8.325 29.138 0 8.325-8.325 8.325-21.646 0-29.138-69.099-69.099-107.395-161.509-107.395-259.747s38.296-189.815 107.395-259.746c8.325-8.324 8.325-21.646 0-29.139-4.163-4.161-9.158-5.827-14.985-5.827zM281.393 432.205c-4.995 0-10.822 1.663-14.985 5.827-54.114 54.115-84.085 125.71-84.085 202.302s29.971 148.189 84.085 202.303c8.324 8.325 21.646 8.325 29.139 0 8.324-8.325 8.324-21.645 0-29.138-46.622-46.621-71.598-107.396-71.598-173.164s25.807-126.544 71.598-173.163c8.324-8.327 8.324-21.646 0-29.139-4.163-4.163-9.159-5.827-14.985-5.827zM497.015 541.264c-57.444 0-104.063 46.622-104.063 104.066s46.619 104.065 104.063 104.065c57.444 0 104.066-46.621 104.066-104.065s-46.622-104.066-104.066-104.066zM497.015 707.769c-34.132 0-62.439-28.305-62.439-62.439s28.307-62.439 62.439-62.439c34.134 0 62.439 28.305 62.439 62.439s-28.305 62.439-62.439 62.439zM799.22 345.622c-4.995 0-10.822 1.666-14.985 5.827-8.324 8.327-8.324 21.646 0 29.139 69.1 69.1 107.395 161.51 107.395 259.746s-38.295 190.647-107.395 259.747c-8.324 8.325-8.324 21.646 0 29.138 8.327 8.325 21.646 8.325 29.139 0 77.424-77.424 119.883-179.824 119.883-288.885s-42.459-211.461-119.883-288.885c-4.163-4.161-9.159-5.827-14.985-5.827zM712.639 432.205c-4.995 0-10.824 1.663-14.985 5.827-8.327 8.324-8.327 21.646 0 29.139 46.619 45.788 71.595 107.395 71.595 173.163 0 64.937-25.807 126.543-71.595 173.164-8.327 8.325-8.327 21.646 0 29.138 8.324 8.325 21.644 8.325 29.137 0 54.115-54.114 84.085-125.71 84.085-202.303s-29.971-148.188-84.085-202.302c-4.161-4.163-9.156-5.827-14.985-5.827zM747.605-63.146c-8.327 0-16.651 4.995-19.98 13.322l-222.283 610.237c-4.163 10.822 34.966 24.976 39.127 14.154l222.283-610.239c4.163-10.822-1.663-22.478-12.488-26.639-2.498 0-4.995-0.834-6.658-0.834zM246.427-63.146c0 0-4.995 0-7.493 0.834-10.823 4.161-16.65 15.817-12.488 26.639l222.283 610.239c4.163 10.822 43.29-3.332 39.129-14.154l-222.283-610.237c-3.332-8.327-10.824-13.322-19.149-13.322zM612.737 291.508h-237.268c-11.656 0-20.815 9.159-20.815 20.815 0 11.654 9.159 20.812 20.815 20.812h237.268c11.654 0 20.812-9.159 20.812-20.812 0-11.656-9.159-20.815-20.812-20.815zM686.829 102.527h-377.132c-11.654 0-20.812 9.156-20.812 20.812s9.159 20.812 20.812 20.812h377.132c11.656 0 20.815-9.156 20.815-20.812s-9.159-20.812-20.815-20.812z" />
<glyph unicode="&#xeb42;" glyph-name="Wifi-alert" d="M740.726 438.74l1.308-1.050-0.625 0.504c60.393-6.18 111.529-42.778 137.093-94.39 7.089-14.38 12.219-29.901 15.043-46.213 1.615-9.423 2.458-19.123 2.458-29.038 0-94.395-76.613-171.008-171.008-171.008h-15.652c-32.586 2.906-60.319 14.638-85.082 33.221l-0.504 0.297c-41.728 31.465-69.089 80.717-69.089 136.806 0 88.241 67.036 160.064 152.54 168.957l4.493 0.863c5.768 0.586 7.132 1.784 13.056 1.784 5.384 0 10.711-0.248 15.969-0.735zM723.625 132.431h2.737c75.244 0 136.123 61.565 136.123 136.809s-61.563 136.806-136.806 136.806c-75.244 0-136.806-61.563-136.806-136.806s60.193-136.123 134.753-136.809zM724.308 250.77c9.577 0 17.101 7.524 17.101 17.101v78.664c0 9.577-7.524 17.101-17.101 17.101-9.574 0-17.101-7.524-17.101-17.101v-78.664c0-9.577 7.526-17.101 17.101-17.101zM698.317 200.837c0 14.364 11.628 25.992 25.992 25.992 14.367 0 25.994-11.628 25.994-25.992 0-14.367-11.628-25.994-25.994-25.994-14.364 0-25.992 11.628-25.992 25.994zM70.4 534.216c244.052 242.346 640 242.346 884.052 0 8.535-7.68 8.535-21.335 0-29.868-4.265-4.268-9.385-5.972-15.36-5.972-5.972 0-11.092 1.705-15.36 5.972-226.985 226.134-596.48 226.134-823.466 0-7.68-8.532-21.334-8.532-29.867 0-8.533 7.68-8.533 21.332 0 29.868zM205.227 370.376c-8.534 7.68-8.534 21.332 0 29.865 169.813 168.108 445.441 168.108 614.401 0 1.656-1.49 2.993-3.208 4.006-5.069-9.661 8.512-21.010 16.346-34.301 22.989-28.682 14.341-55.859 16.632-79.314 12.884-150.013 87.424-346.335 67.2-474.925-60.669-7.68-8.535-21.333-8.535-29.866 0zM592.468 323.963c-85.519 29.425-184.527 10.191-252.416-57.695-8.532-8.532-8.532-22.188 0-29.868 8.535-8.532 22.188-8.532 29.868 0 57.405 56.781 140.815 72.044 212.201 45.788 2.798 13.507 6.262 27.904 10.348 41.774zM480 108.401c0 17.92 14.508 32.428 32.428 32.428s32.425-14.508 32.425-32.428c0-17.92-14.505-32.425-32.425-32.425s-32.428 14.505-32.428 32.425z" />
<glyph unicode="&#xeb43;" glyph-name="Wifi-off" d="M956.16 587.113c-106.668 105.812-245.76 163.839-384.852 177.493l43.52 104.106c4.265 11.094 0 23.040-11.095 28.16-11.092 4.267-23.040 0-28.16-11.093l-49.492-117.76c-164.692 3.413-330.24-56.32-455.68-180.906-8.533-8.535-8.533-22.188 0-29.868 8.533-8.532 22.187-8.532 29.867 0 112.64 111.788 260.266 168.107 407.893 168.96l-64-153.6c-87.892-13.652-171.52-52.908-238.933-119.468-8.534-8.532-8.534-22.185 0-29.865 8.533-8.535 22.186-8.535 29.866 0 53.759 53.76 119.467 87.040 189.439 103.252l-188.586-449.708c-4.267-11.092 0-23.040 11.093-28.16 2.56-0.852 5.973-1.705 8.533-1.705 8.534 0 16.214 5.12 19.627 12.8l76.8 182.612c18.772 45.228 55.468 81.92 101.548 96.428 68.265 20.48 146.772 4.265 200.532-49.495 4.268-4.265 9.388-5.972 15.36-5.972s11.092 2.56 15.36 5.972c8.532 8.535 8.532 22.188 0 29.868-75.948 75.948-190.292 89.6-281.6 43.52l71.68 170.668c112.64 11.092 229.548-24.748 315.732-110.080 4.268-4.268 9.388-5.975 15.36-5.975 5.975 0 11.095 1.708 15.36 5.975 8.535 8.532 8.535 22.185 0 29.865-89.6 89.6-209.065 129.708-326.825 124.588l61.44 146.774c134.825-9.387 267.092-64.854 369.492-167.254 4.268-4.268 9.388-5.972 15.36-5.972s11.092 1.705 15.36 5.972c8.532 8.532 8.532 22.188 0 29.868zM511.572 192.018c-17.92 0-32.425-14.505-32.425-32.425s14.505-32.428 32.425-32.428c17.92 0 32.428 14.508 32.428 32.428s-14.508 32.425-32.428 32.425z" />
<glyph unicode="&#xeb44;" glyph-name="Wifi-on" d="M954.452 585.39c-244.052 242.346-640 242.346-884.052 0-8.533-8.532-8.533-22.188 0-29.868 8.533-8.532 22.187-8.532 29.867 0 226.986 226.134 596.481 226.134 823.466 0 4.268-4.265 9.388-5.972 15.36-5.972 5.975 0 11.095 1.708 15.36 5.972 8.535 8.535 8.535 22.188 0 29.868zM205.227 451.418c-8.534-8.535-8.534-22.188 0-29.868 8.533-8.532 22.186-8.532 29.866 0 152.747 151.892 401.067 151.892 553.814 0 4.265-4.268 9.385-5.972 15.36-5.972 5.972 0 11.092 1.705 15.36 5.972 8.532 8.532 8.532 22.188 0 29.868-168.96 168.105-444.588 168.105-614.401 0zM340.052 317.443c-8.532-8.532-8.532-22.185 0-29.865 8.535-8.535 22.188-8.535 29.868 0 78.508 77.652 205.652 77.652 284.16 0 4.268-4.268 9.388-5.975 15.36-5.975s11.092 1.708 15.36 5.975c8.532 8.532 8.532 22.185 0 29.865-94.72 94.72-250.028 94.72-344.748 0zM512.428 192.003c-17.92 0-32.428-14.505-32.428-32.425s14.508-32.428 32.428-32.428c17.92 0 32.425 14.508 32.425 32.428s-14.505 32.425-32.425 32.425z" />
<glyph unicode="&#xeb45;" glyph-name="Ambulance" horiz-adv-x="1050" d="M999.252 354.15l-203.092 311.468c-19.628 29.865-52.908 47.785-88.748 47.785h-26.452v54.613c0 46.933-38.4 85.333-85.332 85.333-46.935 0-85.335-38.4-85.335-85.333v-54.613h-441.172c-38.4 0-69.12-31.573-69.12-69.973v-445.44c0-38.4 31.573-69.972 69.973-69.972h57.174c10.24-48.64 51.2-85.335 102.4-85.335s92.161 37.548 102.401 85.335h313.172c10.24-48.64 51.2-85.335 102.4-85.335s92.16 37.548 102.4 85.335h29.012c80.215 0 145.92 65.705 145.92 146.772 0 28.16-7.68 55.468-23.892 79.36zM762.028 641.723l111.785-171.52h-266.24c-29.012 0-52.052 23.895-52.052 52.908v147.628h153.6c21.332 0 40.96-11.095 52.908-29.015zM554.668 768.017c0 23.893 18.772 42.667 42.665 42.667 23.895 0 42.668-18.774 42.668-42.667v-54.613h-84.48v54.613h-0.852zM228.693 85.35c-34.986 0-64 29.012-64 64s29.014 64 64 64c34.987 0 63.999-29.012 63.999-64s-29.012-64-63.999-64zM746.668 85.35c-34.988 0-64 29.012-64 64s29.012 64 64 64c34.985 0 64-29.012 64-64s-29.015-64-64-64zM878.080 170.683h-29.012c-10.24 47.788-51.2 85.335-102.4 85.335s-92.16-36.695-102.4-85.335h-313.175c-10.24 47.788-51.2 85.335-102.399 85.335s-92.16-36.695-102.4-85.335h-57.173c-15.36 0-27.307 11.948-27.307 27.308v445.44c0 15.36 11.947 27.308 27.307 27.308h442.028v-147.628c0-52.908 42.665-95.572 94.72-95.572h294.4l63.145-97.28c11.095-16.215 16.215-35.84 16.215-55.468 0-57.172-46.080-104.108-103.255-104.108zM425.812 470.203h-84.48v85.335c0 11.945-9.385 21.332-21.332 21.332s-21.332-9.388-21.332-21.332v-85.335h-85.334c-11.946 0-21.333-9.385-21.333-21.332s9.387-21.332 21.333-21.332h85.334v-85.335c0-11.945 9.385-21.332 21.332-21.332s21.332 9.388 21.332 21.332v85.335h84.48c11.948 0 21.335 9.385 21.335 21.332s-9.388 21.332-21.335 21.332z" />
<glyph unicode="&#xeb46;" glyph-name="Battery" d="M939.523 767.147h-83.625v40.96c0 48.64-39.255 87.893-87.895 87.893s-87.892-39.253-87.892-87.893v-40.96h-337.068v40.96c0 48.64-39.252 87.893-87.892 87.893s-87.894-39.253-87.894-87.893v-40.96h-83.626c-46.934 0-84.48-37.547-84.48-84.479v-470.188c0-46.932 38.4-85.332 84.48-85.332h854.188c46.932 0 85.332 38.4 85.332 85.332v470.188c0 46.932-37.548 84.479-84.48 84.479zM721.923 808.107c0 24.746 20.48 45.226 45.228 45.226s45.228-20.48 45.228-45.226v-40.96h-90.455v40.96zM209.070 808.107c0 24.746 20.48 45.226 45.226 45.226s45.226-20.48 45.226-45.226v-40.96h-90.452v40.96zM979.63 212.48c0-23.040-18.772-42.668-42.668-42.668h-852.479c-23.040 0-41.813 18.775-41.813 42.668v43.52h938.668v-43.52h-1.708zM42.67 298.668v384c0 23.039 18.773 41.812 41.813 41.812h855.039c23.040 0 41.815-18.773 41.815-41.812v-384h-938.668zM351.578 514.56h-75.095v75.092c0 11.948-9.385 21.335-21.332 21.335s-21.334-9.388-21.334-21.335v-75.092h-75.093c-11.947 0-21.333-9.388-21.333-21.332 0-11.948 9.386-21.335 21.333-21.335h75.093v-75.092c0-11.948 9.387-21.332 21.334-21.332s21.332 9.385 21.332 21.332v75.092h75.095c11.945 0 21.332 9.388 21.332 21.335 0 11.945-9.388 21.332-21.332 21.332zM863.578 514.56h-192c-11.948 0-21.335-9.388-21.335-21.332 0-11.948 9.388-21.335 21.335-21.335h192c11.945 0 21.332 9.388 21.332 21.335 0 11.945-9.388 21.332-21.332 21.332z" />
<glyph unicode="&#xeb47;" glyph-name="Bicycle" d="M832.855 468.48c-14.508 0-29.015-2.56-42.668-5.972l-81.068 203.945c-5.12 13.655-3.412 28.16 4.268 40.108 8.532 11.947 21.332 18.773 34.988 18.773h66.56c11.945 0 21.332 9.387 21.332 21.334s-9.388 21.333-21.332 21.333h-66.56c-28.16 0-54.615-13.653-70.828-37.547-16.212-23.040-18.772-52.906-8.532-79.361l29.865-74.24h-336.212v64h49.492c11.948 0 21.335 9.388 21.335 21.335 0 11.945-9.388 21.332-21.335 21.332h-141.652c-11.948 0-21.333-9.388-21.333-21.332 0-11.948 9.386-21.335 21.333-21.335h49.492v-78.505l-69.972-103.255c-17.92 6.828-37.547 11.095-57.173 11.095-93.867 0-170.667-76.8-170.667-170.668s76.8-170.668 170.667-170.668c93.866 0 170.666 76.8 170.666 170.668 0 58.028-29.865 110.080-74.24 140.8l52.908 78.508 122.88-178.348c11.948-17.068 29.012-29.012 48.64-34.132v-69.975h-39.252c-11.948 0-21.335-9.385-21.335-21.332s9.388-21.332 21.335-21.332h123.732c11.948 0 21.332 9.385 21.332 21.332s-9.385 21.332-21.332 21.332h-42.668v69.12c19.628 5.12 36.695 16.215 48.64 33.28l121.175 172.375 25.6-63.148c-52.055-29.012-88.748-84.48-88.748-148.48 0-93.868 76.8-170.668 170.668-170.668 93.865 0 170.665 76.8 170.665 170.668s-76.8 170.668-170.665 170.668zM320.855 299.52c0-70.828-57.175-128-128.001-128-70.827 0-128 57.172-128 128s57.173 128 128 128c70.826 0 128.001-57.172 128.001-128zM570.028 364.372c-8.532-11.092-20.48-17.92-34.988-17.92-13.652 0-26.452 6.828-34.985 18.775l-116.908 170.665h307.2l-120.32-170.665v-0.855zM833.708 172.372c-70.828 0-128 57.175-128 128 0 46.080 24.748 86.188 61.44 109.228l46.080-116.908c3.412-8.532 11.092-13.652 19.628-13.652 2.56 0 5.12 0 7.68 1.708 11.092 4.265 16.212 17.065 11.945 27.305l-46.932 116.908c8.532 1.708 17.92 2.56 26.452 2.56 70.828 0 128-57.172 128-128s-57.172-128-128-128z" />
<glyph unicode="&#xeb48;" glyph-name="Bus-front" d="M288.422 256.858c-17.92 0-32.426-14.508-32.426-32.428s14.506-32.428 32.426-32.428c17.92 0 32.428 14.508 32.428 32.428s-14.508 32.428-32.428 32.428zM735.57 192.858c17.92 0 32.428 14.505 32.428 32.425s-14.508 32.428-32.428 32.428c-17.92 0-32.428-14.508-32.428-32.428s14.508-32.425 32.428-32.425zM876.37 597.338h-24.748v148.479c0 0 0 0 0 0.854s0 0 0 0.853v62.293c0 46.934-38.4 85.334-85.332 85.334h-509.44c-46.933 0-85.333-38.4-85.333-85.334v-213.334h-22.187c-46.080 0-84.48-38.4-84.48-84.48v-64.852c0-11.948 9.387-21.332 21.334-21.332s21.333 9.385 21.333 21.332v64.852c0 23.040 18.773 41.815 41.813 41.815h22.187v-363.52c0-46.935 38.4-85.335 85.333-85.335v-21.332c0-46.932 38.4-85.332 84.48-85.332s84.48 38.4 84.48 85.332v21.332h170.668v-21.332c0-46.932 38.4-85.332 84.48-85.332s84.48 38.4 84.48 85.332v21.332c46.932 0 85.332 38.4 85.332 85.335v363.52h24.748c23.040 0 41.812-18.775 41.812-41.815v-64.852c0-11.948 9.388-21.332 21.332-21.332 11.948 0 21.335 9.385 21.335 21.332v64.852c0 46.935-37.548 84.48-84.48 84.48zM383.142 83.63c0-23.040-18.772-42.668-41.812-42.668s-41.812 18.775-41.812 42.668v21.332h84.48v-21.332h-0.855zM723.622 83.63c0-23.040-18.772-42.668-41.812-42.668s-41.812 18.775-41.812 42.668v21.332h83.625v-21.332zM808.957 190.298c0-23.895-19.628-42.668-42.668-42.668h-509.44c-23.893 0-42.666 18.772-42.666 42.668v157.865c87.894-60.585 189.439-93.865 297.814-93.865 108.372 0 209.065 33.28 296.96 93.865v-157.865zM808.957 399.363c-86.188-66.56-187.735-102.4-296.96-102.4-109.228 0-211.628 35.84-297.814 102.4v325.121h594.774v-325.121zM808.957 768.003h-594.774v41.813c0 23.894 18.773 42.667 42.666 42.667h508.588c23.892 0 42.665-19.627 42.665-42.667v-41.813h0.855z" />
<glyph unicode="&#xeb49;" glyph-name="Car-add" horiz-adv-x="1050" d="M952.32 106.668c0-11.948-9.388-21.335-21.332-21.335h-57.175v-57.172c0-11.948-9.385-21.332-21.332-21.332s-21.332 9.385-21.332 21.332v57.172h-57.175c-11.945 0-21.332 9.388-21.332 21.335 0 11.945 9.388 21.332 21.332 21.332h57.175v57.172c0 11.948 9.385 21.335 21.332 21.335s21.332-9.388 21.332-21.335v-57.172h57.175c11.945 0 21.332-9.388 21.332-21.332zM1023.148 106.668c0-93.868-76.8-170.668-170.668-170.668s-170.668 76.8-170.668 170.668c0 11.092 0.855 23.040 3.415 33.28-19.628 19.625-32.428 45.225-34.988 73.385h-279.040c-5.12-59.732-55.468-107.52-116.053-107.52-60.587 0-111.787 47.788-116.907 108.375-76.8 5.12-138.24 69.972-138.24 148.48 0 78.505 55.467 136.532 128 146.772l52.053 131.412c15.36 38.4 52.054 63.148 93.014 63.148h249.172c40.96 0 80.212-14.508 110.932-40.96l128.855-111.788c29.012-25.6 66.56-39.252 104.96-39.252h7.68c81.92 0 149.332-67.412 149.332-149.332 0-49.495-25.6-94.72-65.708-122.028 40.108-31.572 66.56-79.36 66.56-133.972h-1.705zM522.24 661.332h-60.588v-149.332h280.748c0 0-5.972 4.268-8.532 6.828l-128.855 111.785c-23.040 19.628-52.052 30.72-82.772 30.72zM174.080 512h244.052v149.332h-145.92c-23.892 0-44.372-14.505-53.759-35.84l-45.226-113.492h0.853zM143.36 256.852c14.507 48.64 58.88 84.48 111.787 84.48 52.906 0 98.133-35.84 112.641-85.332h287.572c14.508 49.492 58.88 85.332 112.64 85.332 45.228 0 85.332-25.6 104.96-65.705 15.36-1.708 29.868-5.12 44.372-10.24 39.255 17.065 64 55.465 64 98.132 0 58.88-47.785 106.668-106.665 106.668h-725.334c-58.88 0-106.666-47.788-106.666-106.668s45.226-102.4 100.693-105.812v-0.855zM330.24 223.572c0 40.96-33.28 75.095-75.093 75.095s-75.094-33.28-75.094-75.095c0-41.812 33.28-75.092 75.094-75.092s75.093 33.28 75.093 75.092zM703.148 186.88c23.892 44.372 67.412 77.652 118.612 87.040-13.652 15.36-33.28 24.748-54.612 24.748-40.96 0-75.095-33.28-75.095-75.095 0-12.8 4.268-25.6 11.095-36.692zM980.48 106.668c0 70.825-57.172 128-128 128s-128-57.175-128-128c0-70.828 57.172-128 128-128s128 57.172 128 128z" />
<glyph unicode="&#xeb4a;" glyph-name="Car-alarm" horiz-adv-x="1050" d="M235.517 661.338c-8.533-8.535-8.533-21.335 0-29.868s22.186-8.532 29.866 0c79.36 76.8 215.040 76.8 294.4 0 4.268-4.268 9.388-5.972 14.508-5.972 5.972 0 11.092 2.56 15.36 6.825 7.68 8.535 7.68 22.188 0 29.868-47.788 46.080-110.932 71.68-177.492 71.68s-129.708-25.6-176.641-71.68zM184.317 695.47c5.12 0 11.093 1.708 15.36 5.972 57.173 56.321 132.266 87.894 212.481 87.894 80.212 0 156.16-30.72 212.48-87.894 8.532-8.532 22.185-8.532 29.865 0 8.535 8.534 8.535 22.188 0 29.868-64.852 64.853-151.040 99.84-242.345 99.84-91.308 0-177.494-35.84-242.348-99.84-8.533-8.534-8.533-21.334 0-29.868 4.267-4.265 9.387-5.972 15.36-5.972zM1024.85 236.378c0 82.772-66.56 149.332-149.332 149.332h-11.095c-37.545 0-74.24 13.652-102.4 38.4l-123.732 106.668c-34.988 30.72-79.36 46.932-126.292 46.932h-232.96c-43.521 0-82.774-26.452-98.988-67.412l-50.346-127.148c-72.534-9.388-128.853-71.68-128.853-146.772 0-75.095 61.44-142.508 139.093-148.48 4.266-60.588 54.613-109.228 116.906-109.228s111.788 47.788 116.908 108.372h279.040c4.265-60.585 54.612-108.372 116.052-108.372s112.64 48.64 116.908 109.228c77.652 5.12 139.945 69.12 139.945 148.48zM610.982 498.35l123.735-106.668c0 0 5.12-3.412 8.532-5.972h-280.748v149.332h51.2c35.84 0 70.828-12.8 98.135-36.692zM221.010 494.938c9.387 24.745 33.28 40.105 59.732 40.105h139.095v-149.332h-242.348l43.52 109.228zM257.702 21.338c-40.959 0-75.092 33.28-75.092 75.092s33.28 74.24 75.092 74.24c41.815 0 75.095-33.28 75.095-74.24s-33.28-75.092-75.095-75.092zM769.702 21.338c-40.96 0-75.092 33.28-75.092 75.092s33.28 74.24 75.092 74.24c41.815 0 75.095-33.28 75.095-74.24s-33.28-75.092-75.095-75.092zM881.49 130.563c-14.508 47.788-58.88 82.775-111.788 82.775-52.905 0-97.28-34.988-111.785-83.628h-288.428c-14.508 48.64-58.88 83.628-111.788 83.628-52.906 0-96.426-34.988-111.786-82.775-56.32 2.56-101.547 48.64-101.547 105.815 0 57.172 47.787 106.665 106.667 106.665h725.333c58.88 0 106.668-47.785 106.668-106.665s-45.228-103.255-101.548-105.815z" />
<glyph unicode="&#xeb4b;" glyph-name="Car-alert" d="M832 110.080v74.24c0 11.948 9.388 21.332 21.332 21.332 11.948 0 21.335-9.385 21.335-21.332v-74.24c0-11.948-9.388-21.332-21.335-21.332-11.945 0-21.332 9.385-21.332 21.332zM853.332 70.828c-11.945 0-21.332-9.388-21.332-21.335 0-11.945 9.388-21.332 21.332-21.332 11.948 0 21.335 9.388 21.335 21.332 0 11.948-10.24 21.335-21.335 21.335zM1024 106.668c0-93.868-76.8-170.668-170.668-170.668-93.865 0-170.665 76.8-170.665 170.668 0 11.092 0.852 23.040 3.412 33.28-19.628 19.625-32.428 45.225-34.988 73.385h-279.040c-5.12-59.732-55.465-107.52-116.906-107.52s-111.787 47.788-116.907 108.375c-76.8 5.12-138.24 69.972-138.24 148.48 0 78.505 55.467 136.532 128 146.772l52.053 131.412c15.36 38.4 52.054 63.148 93.014 63.148h249.172c40.96 0 80.212-14.508 110.932-40.96l128.855-111.788c29.012-25.6 66.56-39.252 104.96-39.252h7.68c81.92 0 149.332-67.412 149.332-149.332 0-49.495-25.6-94.72-65.708-122.028 40.108-31.572 65.708-79.36 65.708-133.972zM522.24 661.332h-60.588v-149.332h280.748c0 0-5.972 4.268-8.532 6.828l-128.855 111.785c-23.040 19.628-52.052 30.72-82.772 30.72zM174.080 512h244.908v149.332h-145.92c-23.894 0-44.374-14.505-53.761-35.84l-45.227-113.492zM143.36 256.852c14.507 48.64 58.88 84.48 111.787 84.48 52.906 0 98.133-35.84 112.641-85.332h286.72c14.505 49.492 58.88 85.332 112.64 85.332 45.225 0 85.332-25.6 104.96-65.705 15.36-1.708 30.72-5.12 44.372-10.24 39.252 17.065 64 55.465 64 98.132 0 58.88-47.788 106.668-106.668 106.668h-724.479c-58.88 0-106.666-47.788-106.666-106.668s45.226-102.4 100.693-105.812v-0.855zM330.24 223.572c0 40.96-33.28 75.095-75.093 75.095s-75.094-33.28-75.094-75.095c0-41.812 33.28-75.092 75.094-75.092s75.093 33.28 75.093 75.092zM703.148 186.88c23.892 44.372 67.412 77.652 118.612 87.040-13.652 15.36-33.28 24.748-54.612 24.748-40.96 0-75.095-33.28-75.095-75.095 0-12.8 4.268-25.6 11.095-36.692zM980.48 106.668c0 70.825-57.172 128-128 128s-128-57.175-128-128c0-70.828 57.172-128 128-128s128 57.172 128 128z" />
</font>
</defs>
</svg>
